G04*
G04 #@! TF.GenerationSoftware,Altium Limited,Altium Designer,21.1.1 (26)*
G04*
G04 Layer_Color=2752767*
%FSLAX24Y24*%
%MOIN*%
G70*
G04*
G04 #@! TF.SameCoordinates,700B35B8-587A-4263-8D9C-AFCFB88697EE*
G04*
G04*
G04 #@! TF.FilePolarity,Positive*
G04*
G01*
G75*
%ADD10C,0.0039*%
%ADD11C,0.0079*%
%ADD13C,0.0020*%
%ADD50C,0.0020*%
%ADD51C,0.0027*%
D10*
X46600Y7400D02*
X47600D01*
X46600D02*
Y13400D01*
X47600D01*
Y7400D02*
Y13400D01*
X46600Y500D02*
X47600D01*
X46600D02*
Y5500D01*
X47600D01*
Y500D02*
Y5500D01*
X46600Y15100D02*
X47600D01*
X46600D02*
Y21100D01*
X47600D01*
Y15100D02*
Y21100D01*
X37263Y20682D02*
X40216D01*
Y14619D02*
Y20682D01*
X37263Y14619D02*
X40216D01*
X37263D02*
Y20682D01*
Y20182D02*
X37763Y20682D01*
X40709Y30609D02*
Y31791D01*
X41891D01*
Y30609D02*
Y31791D01*
X40709Y30609D02*
X41891D01*
X40709Y30865D02*
X40965Y30609D01*
X34677Y30246D02*
X35946D01*
X34254Y29823D02*
X34677Y30246D01*
X34254Y28977D02*
Y29823D01*
Y28977D02*
X34677Y28554D01*
X35946D01*
Y30246D01*
X37637Y30160D02*
Y31991D01*
X38563D01*
Y30160D02*
Y31991D01*
X37637Y30160D02*
X38563D01*
X37637Y30623D02*
X38100Y30160D01*
Y28300D02*
Y30160D01*
Y31991D02*
Y33851D01*
X45506Y30246D02*
X46294D01*
Y29754D02*
Y30246D01*
X45506Y29754D02*
X46294D01*
X45506D02*
Y30246D01*
X43106Y32046D02*
X43894D01*
Y31554D02*
Y32046D01*
X43106Y31554D02*
X43894D01*
X43106D02*
Y32046D01*
X39237Y30160D02*
Y31991D01*
X40163D01*
Y30160D02*
Y31991D01*
X39237Y30160D02*
X40163D01*
X39237Y30623D02*
X39700Y30160D01*
Y28300D02*
Y30160D01*
Y31991D02*
Y33851D01*
X34677Y33446D02*
X35946D01*
X34254Y33023D02*
X34677Y33446D01*
X34254Y32177D02*
Y33023D01*
Y32177D02*
X34677Y31754D01*
X35946D01*
Y33446D01*
X45406Y32046D02*
X46194D01*
Y31554D02*
Y32046D01*
X45406Y31554D02*
X46194D01*
X45406D02*
Y32046D01*
X43206Y30246D02*
X43994D01*
Y29754D02*
Y30246D01*
X43206Y29754D02*
X43994D01*
X43206D02*
Y30246D01*
X45644Y24375D02*
X46156D01*
Y23225D02*
Y24375D01*
X45644Y23225D02*
X46156D01*
X45644D02*
Y24375D01*
Y23999D02*
X46020Y24375D01*
X44106Y26546D02*
X44894D01*
Y26054D02*
Y26546D01*
X44106Y26054D02*
X44894D01*
X44106D02*
Y26546D01*
X40650D02*
X41438D01*
Y26054D02*
Y26546D01*
X40650Y26054D02*
X41438D01*
X40650D02*
Y26546D01*
X38914D02*
X39702D01*
Y26054D02*
Y26546D01*
X38914Y26054D02*
X39702D01*
X38914D02*
Y26546D01*
X37178D02*
X37966D01*
Y26054D02*
Y26546D01*
X37178Y26054D02*
X37966D01*
X37178D02*
Y26546D01*
X35442D02*
X36230D01*
Y26054D02*
Y26546D01*
X35442Y26054D02*
X36230D01*
X35442D02*
Y26546D01*
X33706D02*
X34494D01*
Y26054D02*
Y26546D01*
X33706Y26054D02*
X34494D01*
X33706D02*
Y26546D01*
X42406D02*
X43213D01*
Y26054D02*
Y26546D01*
X42406Y26054D02*
X43213D01*
X42406D02*
Y26546D01*
X43085Y24371D02*
X43715D01*
Y23229D02*
Y24371D01*
X43085Y23229D02*
X43715D01*
X43085D02*
Y24371D01*
Y23997D02*
X43459Y24371D01*
X39632Y24765D02*
X41168D01*
Y22835D02*
Y24765D01*
X39632Y22835D02*
X41168D01*
X39632D02*
Y24765D01*
Y24265D02*
X40132Y24765D01*
X36032D02*
X37568D01*
Y22835D02*
Y24765D01*
X36032Y22835D02*
X37568D01*
X36032D02*
Y24765D01*
Y24265D02*
X36532Y24765D01*
X37284Y11032D02*
X40237D01*
Y4969D02*
Y11032D01*
X37284Y4969D02*
X40237D01*
X37284D02*
Y11032D01*
Y10532D02*
X37784Y11032D01*
X4878Y6214D02*
X5714Y5378D01*
X3584Y4919D02*
X4878Y6214D01*
X3584Y4919D02*
X4419Y4084D01*
X5714Y5378D01*
X14378Y6214D02*
X15214Y5378D01*
X13084Y4919D02*
X14378Y6214D01*
X13084Y4919D02*
X13919Y4084D01*
X15214Y5378D01*
X2519Y30684D02*
X3814Y31978D01*
X1684Y31519D02*
X2519Y30684D01*
X1684Y31519D02*
X2978Y32814D01*
X3814Y31978D01*
X4419Y30684D02*
X5714Y31978D01*
X3584Y31519D02*
X4419Y30684D01*
X3584Y31519D02*
X4878Y32814D01*
X5714Y31978D01*
X31019Y30684D02*
X32314Y31978D01*
X30184Y31519D02*
X31019Y30684D01*
X30184Y31519D02*
X31478Y32814D01*
X32314Y31978D01*
X25319Y30684D02*
X26614Y31978D01*
X24484Y31519D02*
X25319Y30684D01*
X24484Y31519D02*
X25778Y32814D01*
X26614Y31978D01*
X29119Y30684D02*
X30414Y31978D01*
X28284Y31519D02*
X29119Y30684D01*
X28284Y31519D02*
X29578Y32814D01*
X30414Y31978D01*
X27219Y30684D02*
X28514Y31978D01*
X26384Y31519D02*
X27219Y30684D01*
X26384Y31519D02*
X27678Y32814D01*
X28514Y31978D01*
X19628Y30693D02*
X20922Y31987D01*
X18793Y31528D02*
X19628Y30693D01*
X18793Y31528D02*
X20087Y32822D01*
X20922Y31987D01*
X13919Y30684D02*
X15214Y31978D01*
X13084Y31519D02*
X13919Y30684D01*
X13084Y31519D02*
X14378Y32814D01*
X15214Y31978D01*
X15819Y30684D02*
X17114Y31978D01*
X14984Y31519D02*
X15819Y30684D01*
X14984Y31519D02*
X16278Y32814D01*
X17114Y31978D01*
X21519Y30684D02*
X22814Y31978D01*
X20684Y31519D02*
X21519Y30684D01*
X20684Y31519D02*
X21978Y32814D01*
X22814Y31978D01*
X23428Y30693D02*
X24722Y31987D01*
X22593Y31528D02*
X23428Y30693D01*
X22593Y31528D02*
X23887Y32822D01*
X24722Y31987D01*
X17728Y30693D02*
X19022Y31987D01*
X16893Y31528D02*
X17728Y30693D01*
X16893Y31528D02*
X18187Y32822D01*
X19022Y31987D01*
X10119Y30684D02*
X11414Y31978D01*
X9284Y31519D02*
X10119Y30684D01*
X9284Y31519D02*
X10578Y32814D01*
X11414Y31978D01*
X12028Y30693D02*
X13322Y31987D01*
X11193Y31528D02*
X12028Y30693D01*
X11193Y31528D02*
X12487Y32822D01*
X13322Y31987D01*
X8228Y30693D02*
X9522Y31987D01*
X7393Y31528D02*
X8228Y30693D01*
X7393Y31528D02*
X8687Y32822D01*
X9522Y31987D01*
X6319Y30684D02*
X7614Y31978D01*
X5484Y31519D02*
X6319Y30684D01*
X5484Y31519D02*
X6778Y32814D01*
X7614Y31978D01*
X23519Y4084D02*
X24814Y5378D01*
X22684Y4919D02*
X23519Y4084D01*
X22684Y4919D02*
X23978Y6214D01*
X24814Y5378D01*
X6319Y4084D02*
X7614Y5378D01*
X5484Y4919D02*
X6319Y4084D01*
X5484Y4919D02*
X6778Y6214D01*
X7614Y5378D01*
X21619Y4084D02*
X22914Y5378D01*
X20784Y4919D02*
X21619Y4084D01*
X20784Y4919D02*
X22078Y6214D01*
X22914Y5378D01*
X27319Y4084D02*
X28614Y5378D01*
X26484Y4919D02*
X27319Y4084D01*
X26484Y4919D02*
X27778Y6214D01*
X28614Y5378D01*
X25419Y4084D02*
X26714Y5378D01*
X24584Y4919D02*
X25419Y4084D01*
X24584Y4919D02*
X25878Y6214D01*
X26714Y5378D01*
X19619Y4084D02*
X20914Y5378D01*
X18784Y4919D02*
X19619Y4084D01*
X18784Y4919D02*
X20078Y6214D01*
X20914Y5378D01*
X10119Y4084D02*
X11414Y5378D01*
X9284Y4919D02*
X10119Y4084D01*
X9284Y4919D02*
X10578Y6214D01*
X11414Y5378D01*
X12019Y4084D02*
X13314Y5378D01*
X11184Y4919D02*
X12019Y4084D01*
X11184Y4919D02*
X12478Y6214D01*
X13314Y5378D01*
X17719Y4084D02*
X19014Y5378D01*
X16884Y4919D02*
X17719Y4084D01*
X16884Y4919D02*
X18178Y6214D01*
X19014Y5378D01*
X8219Y4084D02*
X9514Y5378D01*
X7384Y4919D02*
X8219Y4084D01*
X7384Y4919D02*
X8678Y6214D01*
X9514Y5378D01*
X15819Y4084D02*
X17114Y5378D01*
X14984Y4919D02*
X15819Y4084D01*
X14984Y4919D02*
X16278Y6214D01*
X17114Y5378D01*
X2519Y4084D02*
X3814Y5378D01*
X1684Y4919D02*
X2519Y4084D01*
X1684Y4919D02*
X2978Y6214D01*
X3814Y5378D01*
X31119Y4084D02*
X32414Y5378D01*
X30284Y4919D02*
X31119Y4084D01*
X30284Y4919D02*
X31578Y6214D01*
X32414Y5378D01*
X29219Y4084D02*
X30514Y5378D01*
X28384Y4919D02*
X29219Y4084D01*
X28384Y4919D02*
X29678Y6214D01*
X30514Y5378D01*
X19619Y5984D02*
X20914Y7278D01*
X18784Y6819D02*
X19619Y5984D01*
X18784Y6819D02*
X20078Y8114D01*
X20914Y7278D01*
X31119Y5984D02*
X32414Y7278D01*
X30284Y6819D02*
X31119Y5984D01*
X30284Y6819D02*
X31578Y8114D01*
X32414Y7278D01*
X21619Y5984D02*
X22914Y7278D01*
X20784Y6819D02*
X21619Y5984D01*
X20784Y6819D02*
X22078Y8114D01*
X22914Y7278D01*
X23519Y5984D02*
X24814Y7278D01*
X22684Y6819D02*
X23519Y5984D01*
X22684Y6819D02*
X23978Y8114D01*
X24814Y7278D01*
X6328Y5993D02*
X7622Y7287D01*
X5493Y6828D02*
X6328Y5993D01*
X5493Y6828D02*
X6787Y8122D01*
X7622Y7287D01*
X17719Y5984D02*
X19014Y7278D01*
X16884Y6819D02*
X17719Y5984D01*
X16884Y6819D02*
X18178Y8114D01*
X19014Y7278D01*
X13919Y5984D02*
X15214Y7278D01*
X13084Y6819D02*
X13919Y5984D01*
X13084Y6819D02*
X14378Y8114D01*
X15214Y7278D01*
X10119Y5984D02*
X11414Y7278D01*
X9284Y6819D02*
X10119Y5984D01*
X9284Y6819D02*
X10578Y8114D01*
X11414Y7278D01*
X12019Y5984D02*
X13314Y7278D01*
X11184Y6819D02*
X12019Y5984D01*
X11184Y6819D02*
X12478Y8114D01*
X13314Y7278D01*
X8219Y5984D02*
X9514Y7278D01*
X7384Y6819D02*
X8219Y5984D01*
X7384Y6819D02*
X8678Y8114D01*
X9514Y7278D01*
X2519Y5984D02*
X3814Y7278D01*
X1684Y6819D02*
X2519Y5984D01*
X1684Y6819D02*
X2978Y8114D01*
X3814Y7278D01*
X15819Y5984D02*
X17114Y7278D01*
X14984Y6819D02*
X15819Y5984D01*
X14984Y6819D02*
X16278Y8114D01*
X17114Y7278D01*
X25419Y5984D02*
X26714Y7278D01*
X24584Y6819D02*
X25419Y5984D01*
X24584Y6819D02*
X25878Y8114D01*
X26714Y7278D01*
X27319Y5984D02*
X28614Y7278D01*
X26484Y6819D02*
X27319Y5984D01*
X26484Y6819D02*
X27778Y8114D01*
X28614Y7278D01*
X4419Y5984D02*
X5714Y7278D01*
X3584Y6819D02*
X4419Y5984D01*
X3584Y6819D02*
X4878Y8114D01*
X5714Y7278D01*
X29219Y5984D02*
X30514Y7278D01*
X28384Y6819D02*
X29219Y5984D01*
X28384Y6819D02*
X29678Y8114D01*
X30514Y7278D01*
X17719Y7884D02*
X19014Y9178D01*
X16884Y8719D02*
X17719Y7884D01*
X16884Y8719D02*
X18178Y10014D01*
X19014Y9178D01*
X19619Y7884D02*
X20914Y9178D01*
X18784Y8719D02*
X19619Y7884D01*
X18784Y8719D02*
X20078Y10014D01*
X20914Y9178D01*
X8219Y7884D02*
X9514Y9178D01*
X7384Y8719D02*
X8219Y7884D01*
X7384Y8719D02*
X8678Y10014D01*
X9514Y9178D01*
X2519Y7884D02*
X3814Y9178D01*
X1684Y8719D02*
X2519Y7884D01*
X1684Y8719D02*
X2978Y10014D01*
X3814Y9178D01*
X10119Y7884D02*
X11414Y9178D01*
X9284Y8719D02*
X10119Y7884D01*
X9284Y8719D02*
X10578Y10014D01*
X11414Y9178D01*
X29228Y7884D02*
X30523Y9178D01*
X28393Y8719D02*
X29228Y7884D01*
X28393Y8719D02*
X29687Y10014D01*
X30523Y9178D01*
X12010Y7884D02*
X13304Y9178D01*
X11175Y8719D02*
X12010Y7884D01*
X11175Y8719D02*
X12469Y10014D01*
X13304Y9178D01*
X13901Y7884D02*
X15195Y9178D01*
X13066Y8719D02*
X13901Y7884D01*
X13066Y8719D02*
X14360Y10014D01*
X15195Y9178D01*
X4419Y7884D02*
X5714Y9178D01*
X3584Y8719D02*
X4419Y7884D01*
X3584Y8719D02*
X4878Y10014D01*
X5714Y9178D01*
X15819Y7884D02*
X17114Y9178D01*
X14984Y8719D02*
X15819Y7884D01*
X14984Y8719D02*
X16278Y10014D01*
X17114Y9178D01*
X27337Y7884D02*
X28632Y9178D01*
X26502Y8719D02*
X27337Y7884D01*
X26502Y8719D02*
X27797Y10014D01*
X28632Y9178D01*
X25446Y7884D02*
X26741Y9178D01*
X24611Y8719D02*
X25446Y7884D01*
X24611Y8719D02*
X25906Y10014D01*
X26741Y9178D01*
X31119Y7884D02*
X32414Y9178D01*
X30284Y8719D02*
X31119Y7884D01*
X30284Y8719D02*
X31578Y10014D01*
X32414Y9178D01*
X21565Y7884D02*
X22859Y9178D01*
X20729Y8719D02*
X21565Y7884D01*
X20729Y8719D02*
X22024Y10014D01*
X22859Y9178D01*
X6328Y7893D02*
X7622Y9187D01*
X5493Y8728D02*
X6328Y7893D01*
X5493Y8728D02*
X6787Y10022D01*
X7622Y9187D01*
X23455Y7884D02*
X24750Y9178D01*
X22620Y8719D02*
X23455Y7884D01*
X22620Y8719D02*
X23915Y10014D01*
X24750Y9178D01*
X2519Y9784D02*
X3814Y11078D01*
X1684Y10619D02*
X2519Y9784D01*
X1684Y10619D02*
X2978Y11914D01*
X3814Y11078D01*
X29219Y9784D02*
X30514Y11078D01*
X28384Y10619D02*
X29219Y9784D01*
X28384Y10619D02*
X29678Y11914D01*
X30514Y11078D01*
X10119Y9784D02*
X11414Y11078D01*
X9284Y10619D02*
X10119Y9784D01*
X9284Y10619D02*
X10578Y11914D01*
X11414Y11078D01*
X6319Y9784D02*
X7614Y11078D01*
X5484Y10619D02*
X6319Y9784D01*
X5484Y10619D02*
X6778Y11914D01*
X7614Y11078D01*
X25419Y9784D02*
X26714Y11078D01*
X24584Y10619D02*
X25419Y9784D01*
X24584Y10619D02*
X25878Y11914D01*
X26714Y11078D01*
X15819Y9784D02*
X17114Y11078D01*
X14984Y10619D02*
X15819Y9784D01*
X14984Y10619D02*
X16278Y11914D01*
X17114Y11078D01*
X13919Y9784D02*
X15214Y11078D01*
X13084Y10619D02*
X13919Y9784D01*
X13084Y10619D02*
X14378Y11914D01*
X15214Y11078D01*
X23419Y9784D02*
X24714Y11078D01*
X22584Y10619D02*
X23419Y9784D01*
X22584Y10619D02*
X23878Y11914D01*
X24714Y11078D01*
X12019Y9784D02*
X13314Y11078D01*
X11184Y10619D02*
X12019Y9784D01*
X11184Y10619D02*
X12478Y11914D01*
X13314Y11078D01*
X31119Y9784D02*
X32414Y11078D01*
X30284Y10619D02*
X31119Y9784D01*
X30284Y10619D02*
X31578Y11914D01*
X32414Y11078D01*
X19628Y9793D02*
X20922Y11087D01*
X18793Y10628D02*
X19628Y9793D01*
X18793Y10628D02*
X20087Y11922D01*
X20922Y11087D01*
X8219Y9784D02*
X9514Y11078D01*
X7384Y10619D02*
X8219Y9784D01*
X7384Y10619D02*
X8678Y11914D01*
X9514Y11078D01*
X17719Y9784D02*
X19014Y11078D01*
X16884Y10619D02*
X17719Y9784D01*
X16884Y10619D02*
X18178Y11914D01*
X19014Y11078D01*
X4419Y9784D02*
X5714Y11078D01*
X3584Y10619D02*
X4419Y9784D01*
X3584Y10619D02*
X4878Y11914D01*
X5714Y11078D01*
X27319Y9784D02*
X28614Y11078D01*
X26484Y10619D02*
X27319Y9784D01*
X26484Y10619D02*
X27778Y11914D01*
X28614Y11078D01*
X21519Y9784D02*
X22814Y11078D01*
X20684Y10619D02*
X21519Y9784D01*
X20684Y10619D02*
X21978Y11914D01*
X22814Y11078D01*
X25364Y11693D02*
X26659Y12987D01*
X24529Y12528D02*
X25364Y11693D01*
X24529Y12528D02*
X25824Y13822D01*
X26659Y12987D01*
X29219Y11684D02*
X30514Y12978D01*
X28384Y12519D02*
X29219Y11684D01*
X28384Y12519D02*
X29678Y13814D01*
X30514Y12978D01*
X11992Y11684D02*
X13286Y12978D01*
X11157Y12519D02*
X11992Y11684D01*
X11157Y12519D02*
X12451Y13814D01*
X13286Y12978D01*
X27319Y11684D02*
X28614Y12978D01*
X26484Y12519D02*
X27319Y11684D01*
X26484Y12519D02*
X27778Y13814D01*
X28614Y12978D01*
X17719Y11684D02*
X19014Y12978D01*
X16884Y12519D02*
X17719Y11684D01*
X16884Y12519D02*
X18178Y13814D01*
X19014Y12978D01*
X21519Y11693D02*
X22813Y12987D01*
X20684Y12528D02*
X21519Y11693D01*
X20684Y12528D02*
X21978Y13822D01*
X22813Y12987D01*
X19628Y11693D02*
X20922Y12987D01*
X18793Y12528D02*
X19628Y11693D01*
X18793Y12528D02*
X20087Y13822D01*
X20922Y12987D01*
X23419Y11684D02*
X24714Y12978D01*
X22584Y12519D02*
X23419Y11684D01*
X22584Y12519D02*
X23878Y13814D01*
X24714Y12978D01*
X13928Y11693D02*
X15222Y12987D01*
X13093Y12528D02*
X13928Y11693D01*
X13093Y12528D02*
X14387Y13822D01*
X15222Y12987D01*
X31119Y11684D02*
X32414Y12978D01*
X30284Y12519D02*
X31119Y11684D01*
X30284Y12519D02*
X31578Y13814D01*
X32414Y12978D01*
X15801Y11693D02*
X17095Y12987D01*
X14965Y12528D02*
X15801Y11693D01*
X14965Y12528D02*
X16260Y13822D01*
X17095Y12987D01*
X6319Y11684D02*
X7614Y12978D01*
X5484Y12519D02*
X6319Y11684D01*
X5484Y12519D02*
X6778Y13814D01*
X7614Y12978D01*
X2519Y11684D02*
X3814Y12978D01*
X1684Y12519D02*
X2519Y11684D01*
X1684Y12519D02*
X2978Y13814D01*
X3814Y12978D01*
X10119Y11684D02*
X11414Y12978D01*
X9284Y12519D02*
X10119Y11684D01*
X9284Y12519D02*
X10578Y13814D01*
X11414Y12978D01*
X4419Y11684D02*
X5714Y12978D01*
X3584Y12519D02*
X4419Y11684D01*
X3584Y12519D02*
X4878Y13814D01*
X5714Y12978D01*
X8219Y11684D02*
X9514Y12978D01*
X7384Y12519D02*
X8219Y11684D01*
X7384Y12519D02*
X8678Y13814D01*
X9514Y12978D01*
X10119Y13584D02*
X11414Y14878D01*
X9284Y14419D02*
X10119Y13584D01*
X9284Y14419D02*
X10578Y15714D01*
X11414Y14878D01*
X12019Y13584D02*
X13314Y14878D01*
X11184Y14419D02*
X12019Y13584D01*
X11184Y14419D02*
X12478Y15714D01*
X13314Y14878D01*
X29219Y13584D02*
X30514Y14878D01*
X28384Y14419D02*
X29219Y13584D01*
X28384Y14419D02*
X29678Y15714D01*
X30514Y14878D01*
X21519Y13584D02*
X22814Y14878D01*
X20684Y14419D02*
X21519Y13584D01*
X20684Y14419D02*
X21978Y15714D01*
X22814Y14878D01*
X8219Y13584D02*
X9514Y14878D01*
X7384Y14419D02*
X8219Y13584D01*
X7384Y14419D02*
X8678Y15714D01*
X9514Y14878D01*
X27319Y13584D02*
X28614Y14878D01*
X26484Y14419D02*
X27319Y13584D01*
X26484Y14419D02*
X27778Y15714D01*
X28614Y14878D01*
X4419Y13584D02*
X5714Y14878D01*
X3584Y14419D02*
X4419Y13584D01*
X3584Y14419D02*
X4878Y15714D01*
X5714Y14878D01*
X2519Y13584D02*
X3814Y14878D01*
X1684Y14419D02*
X2519Y13584D01*
X1684Y14419D02*
X2978Y15714D01*
X3814Y14878D01*
X23419Y13584D02*
X24714Y14878D01*
X22584Y14419D02*
X23419Y13584D01*
X22584Y14419D02*
X23878Y15714D01*
X24714Y14878D01*
X19619Y13584D02*
X20914Y14878D01*
X18784Y14419D02*
X19619Y13584D01*
X18784Y14419D02*
X20078Y15714D01*
X20914Y14878D01*
X31119Y13584D02*
X32414Y14878D01*
X30284Y14419D02*
X31119Y13584D01*
X30284Y14419D02*
X31578Y15714D01*
X32414Y14878D01*
X25319Y13584D02*
X26614Y14878D01*
X24484Y14419D02*
X25319Y13584D01*
X24484Y14419D02*
X25778Y15714D01*
X26614Y14878D01*
X13919Y13584D02*
X15214Y14878D01*
X13084Y14419D02*
X13919Y13584D01*
X13084Y14419D02*
X14378Y15714D01*
X15214Y14878D01*
X6319Y13584D02*
X7614Y14878D01*
X5484Y14419D02*
X6319Y13584D01*
X5484Y14419D02*
X6778Y15714D01*
X7614Y14878D01*
X17719Y13584D02*
X19014Y14878D01*
X16884Y14419D02*
X17719Y13584D01*
X16884Y14419D02*
X18178Y15714D01*
X19014Y14878D01*
X23419Y15484D02*
X24714Y16778D01*
X22584Y16319D02*
X23419Y15484D01*
X22584Y16319D02*
X23878Y17614D01*
X24714Y16778D01*
X25319Y15484D02*
X26614Y16778D01*
X24484Y16319D02*
X25319Y15484D01*
X24484Y16319D02*
X25778Y17614D01*
X26614Y16778D01*
X13919Y15484D02*
X15214Y16778D01*
X13084Y16319D02*
X13919Y15484D01*
X13084Y16319D02*
X14378Y17614D01*
X15214Y16778D01*
X31119Y15484D02*
X32414Y16778D01*
X30284Y16319D02*
X31119Y15484D01*
X30284Y16319D02*
X31578Y17614D01*
X32414Y16778D01*
X27219Y15484D02*
X28514Y16778D01*
X26384Y16319D02*
X27219Y15484D01*
X26384Y16319D02*
X27678Y17614D01*
X28514Y16778D01*
X4419Y15484D02*
X5714Y16778D01*
X3584Y16319D02*
X4419Y15484D01*
X3584Y16319D02*
X4878Y17614D01*
X5714Y16778D01*
X21519Y15484D02*
X22814Y16778D01*
X20684Y16319D02*
X21519Y15484D01*
X20684Y16319D02*
X21978Y17614D01*
X22814Y16778D01*
X15819Y15484D02*
X17114Y16778D01*
X14984Y16319D02*
X15819Y15484D01*
X14984Y16319D02*
X16278Y17614D01*
X17114Y16778D01*
X10119Y15484D02*
X11414Y16778D01*
X9284Y16319D02*
X10119Y15484D01*
X9284Y16319D02*
X10578Y17614D01*
X11414Y16778D01*
X6319Y15484D02*
X7614Y16778D01*
X5484Y16319D02*
X6319Y15484D01*
X5484Y16319D02*
X6778Y17614D01*
X7614Y16778D01*
X12019Y15484D02*
X13314Y16778D01*
X11184Y16319D02*
X12019Y15484D01*
X11184Y16319D02*
X12478Y17614D01*
X13314Y16778D01*
X2510Y15475D02*
X3805Y16770D01*
X1675Y16310D02*
X2510Y15475D01*
X1675Y16310D02*
X2970Y17605D01*
X3805Y16770D01*
X19619Y15484D02*
X20914Y16778D01*
X18784Y16319D02*
X19619Y15484D01*
X18784Y16319D02*
X20078Y17614D01*
X20914Y16778D01*
X8219Y15484D02*
X9514Y16778D01*
X7384Y16319D02*
X8219Y15484D01*
X7384Y16319D02*
X8678Y17614D01*
X9514Y16778D01*
X29219Y15484D02*
X30514Y16778D01*
X28384Y16319D02*
X29219Y15484D01*
X28384Y16319D02*
X29678Y17614D01*
X30514Y16778D01*
X17719Y15484D02*
X19014Y16778D01*
X16884Y16319D02*
X17719Y15484D01*
X16884Y16319D02*
X18178Y17614D01*
X19014Y16778D01*
X25319Y17384D02*
X26614Y18678D01*
X24484Y18219D02*
X25319Y17384D01*
X24484Y18219D02*
X25778Y19514D01*
X26614Y18678D01*
X21519Y17384D02*
X22814Y18678D01*
X20684Y18219D02*
X21519Y17384D01*
X20684Y18219D02*
X21978Y19514D01*
X22814Y18678D01*
X6319Y17384D02*
X7614Y18678D01*
X5484Y18219D02*
X6319Y17384D01*
X5484Y18219D02*
X6778Y19514D01*
X7614Y18678D01*
X19619Y17384D02*
X20914Y18678D01*
X18784Y18219D02*
X19619Y17384D01*
X18784Y18219D02*
X20078Y19514D01*
X20914Y18678D01*
X8219Y17384D02*
X9514Y18678D01*
X7384Y18219D02*
X8219Y17384D01*
X7384Y18219D02*
X8678Y19514D01*
X9514Y18678D01*
X23419Y17384D02*
X24714Y18678D01*
X22584Y18219D02*
X23419Y17384D01*
X22584Y18219D02*
X23878Y19514D01*
X24714Y18678D01*
X17719Y17384D02*
X19014Y18678D01*
X16884Y18219D02*
X17719Y17384D01*
X16884Y18219D02*
X18178Y19514D01*
X19014Y18678D01*
X12019Y17384D02*
X13314Y18678D01*
X11184Y18219D02*
X12019Y17384D01*
X11184Y18219D02*
X12478Y19514D01*
X13314Y18678D01*
X10119Y17384D02*
X11414Y18678D01*
X9284Y18219D02*
X10119Y17384D01*
X9284Y18219D02*
X10578Y19514D01*
X11414Y18678D01*
X27219Y17384D02*
X28514Y18678D01*
X26384Y18219D02*
X27219Y17384D01*
X26384Y18219D02*
X27678Y19514D01*
X28514Y18678D01*
X29119Y17384D02*
X30414Y18678D01*
X28284Y18219D02*
X29119Y17384D01*
X28284Y18219D02*
X29578Y19514D01*
X30414Y18678D01*
X13919Y17384D02*
X15214Y18678D01*
X13084Y18219D02*
X13919Y17384D01*
X13084Y18219D02*
X14378Y19514D01*
X15214Y18678D01*
X2519Y17384D02*
X3814Y18678D01*
X1684Y18219D02*
X2519Y17384D01*
X1684Y18219D02*
X2978Y19514D01*
X3814Y18678D01*
X15819Y17384D02*
X17114Y18678D01*
X14984Y18219D02*
X15819Y17384D01*
X14984Y18219D02*
X16278Y19514D01*
X17114Y18678D01*
X31019Y17384D02*
X32314Y18678D01*
X30184Y18219D02*
X31019Y17384D01*
X30184Y18219D02*
X31478Y19514D01*
X32314Y18678D01*
X4419Y17384D02*
X5714Y18678D01*
X3584Y18219D02*
X4419Y17384D01*
X3584Y18219D02*
X4878Y19514D01*
X5714Y18678D01*
X19619Y19284D02*
X20914Y20578D01*
X18784Y20119D02*
X19619Y19284D01*
X18784Y20119D02*
X20078Y21414D01*
X20914Y20578D01*
X2519Y19284D02*
X3814Y20578D01*
X1684Y20119D02*
X2519Y19284D01*
X1684Y20119D02*
X2978Y21414D01*
X3814Y20578D01*
X21519Y19284D02*
X22814Y20578D01*
X20684Y20119D02*
X21519Y19284D01*
X20684Y20119D02*
X21978Y21414D01*
X22814Y20578D01*
X10119Y19284D02*
X11414Y20578D01*
X9284Y20119D02*
X10119Y19284D01*
X9284Y20119D02*
X10578Y21414D01*
X11414Y20578D01*
X6319Y19284D02*
X7614Y20578D01*
X5484Y20119D02*
X6319Y19284D01*
X5484Y20119D02*
X6778Y21414D01*
X7614Y20578D01*
X12019Y19284D02*
X13314Y20578D01*
X11184Y20119D02*
X12019Y19284D01*
X11184Y20119D02*
X12478Y21414D01*
X13314Y20578D01*
X31019Y19284D02*
X32314Y20578D01*
X30184Y20119D02*
X31019Y19284D01*
X30184Y20119D02*
X31478Y21414D01*
X32314Y20578D01*
X17719Y19284D02*
X19014Y20578D01*
X16884Y20119D02*
X17719Y19284D01*
X16884Y20119D02*
X18178Y21414D01*
X19014Y20578D01*
X27219Y19284D02*
X28514Y20578D01*
X26384Y20119D02*
X27219Y19284D01*
X26384Y20119D02*
X27678Y21414D01*
X28514Y20578D01*
X23419Y19284D02*
X24714Y20578D01*
X22584Y20119D02*
X23419Y19284D01*
X22584Y20119D02*
X23878Y21414D01*
X24714Y20578D01*
X4419Y19284D02*
X5714Y20578D01*
X3584Y20119D02*
X4419Y19284D01*
X3584Y20119D02*
X4878Y21414D01*
X5714Y20578D01*
X8219Y19284D02*
X9514Y20578D01*
X7384Y20119D02*
X8219Y19284D01*
X7384Y20119D02*
X8678Y21414D01*
X9514Y20578D01*
X25319Y19284D02*
X26614Y20578D01*
X24484Y20119D02*
X25319Y19284D01*
X24484Y20119D02*
X25778Y21414D01*
X26614Y20578D01*
X13919Y19284D02*
X15214Y20578D01*
X13084Y20119D02*
X13919Y19284D01*
X13084Y20119D02*
X14378Y21414D01*
X15214Y20578D01*
X29119Y19284D02*
X30414Y20578D01*
X28284Y20119D02*
X29119Y19284D01*
X28284Y20119D02*
X29578Y21414D01*
X30414Y20578D01*
X15819Y19284D02*
X17114Y20578D01*
X14984Y20119D02*
X15819Y19284D01*
X14984Y20119D02*
X16278Y21414D01*
X17114Y20578D01*
X25319Y21184D02*
X26614Y22478D01*
X24484Y22019D02*
X25319Y21184D01*
X24484Y22019D02*
X25778Y23314D01*
X26614Y22478D01*
X4419Y21184D02*
X5714Y22478D01*
X3584Y22019D02*
X4419Y21184D01*
X3584Y22019D02*
X4878Y23314D01*
X5714Y22478D01*
X31019Y21184D02*
X32314Y22478D01*
X30184Y22019D02*
X31019Y21184D01*
X30184Y22019D02*
X31478Y23314D01*
X32314Y22478D01*
X27219Y21184D02*
X28514Y22478D01*
X26384Y22019D02*
X27219Y21184D01*
X26384Y22019D02*
X27678Y23314D01*
X28514Y22478D01*
X23419Y21184D02*
X24714Y22478D01*
X22584Y22019D02*
X23419Y21184D01*
X22584Y22019D02*
X23878Y23314D01*
X24714Y22478D01*
X29119Y21184D02*
X30414Y22478D01*
X28284Y22019D02*
X29119Y21184D01*
X28284Y22019D02*
X29578Y23314D01*
X30414Y22478D01*
X6319Y21184D02*
X7614Y22478D01*
X5484Y22019D02*
X6319Y21184D01*
X5484Y22019D02*
X6778Y23314D01*
X7614Y22478D01*
X21519Y21184D02*
X22814Y22478D01*
X20684Y22019D02*
X21519Y21184D01*
X20684Y22019D02*
X21978Y23314D01*
X22814Y22478D01*
X2519Y21184D02*
X3814Y22478D01*
X1684Y22019D02*
X2519Y21184D01*
X1684Y22019D02*
X2978Y23314D01*
X3814Y22478D01*
X13919Y21184D02*
X15214Y22478D01*
X13084Y22019D02*
X13919Y21184D01*
X13084Y22019D02*
X14378Y23314D01*
X15214Y22478D01*
X10119Y21184D02*
X11414Y22478D01*
X9284Y22019D02*
X10119Y21184D01*
X9284Y22019D02*
X10578Y23314D01*
X11414Y22478D01*
X15819Y21184D02*
X17114Y22478D01*
X14984Y22019D02*
X15819Y21184D01*
X14984Y22019D02*
X16278Y23314D01*
X17114Y22478D01*
X17719Y21184D02*
X19014Y22478D01*
X16884Y22019D02*
X17719Y21184D01*
X16884Y22019D02*
X18178Y23314D01*
X19014Y22478D01*
X8219Y21184D02*
X9514Y22478D01*
X7384Y22019D02*
X8219Y21184D01*
X7384Y22019D02*
X8678Y23314D01*
X9514Y22478D01*
X19628Y21193D02*
X20922Y22487D01*
X18793Y22028D02*
X19628Y21193D01*
X18793Y22028D02*
X20087Y23322D01*
X20922Y22487D01*
X12019Y21184D02*
X13314Y22478D01*
X11184Y22019D02*
X12019Y21184D01*
X11184Y22019D02*
X12478Y23314D01*
X13314Y22478D01*
X4419Y23084D02*
X5714Y24378D01*
X3584Y23919D02*
X4419Y23084D01*
X3584Y23919D02*
X4878Y25214D01*
X5714Y24378D01*
X15819Y23084D02*
X17114Y24378D01*
X14984Y23919D02*
X15819Y23084D01*
X14984Y23919D02*
X16278Y25214D01*
X17114Y24378D01*
X23419Y23084D02*
X24714Y24378D01*
X22584Y23919D02*
X23419Y23084D01*
X22584Y23919D02*
X23878Y25214D01*
X24714Y24378D01*
X17719Y23084D02*
X19014Y24378D01*
X16884Y23919D02*
X17719Y23084D01*
X16884Y23919D02*
X18178Y25214D01*
X19014Y24378D01*
X31019Y23084D02*
X32314Y24378D01*
X30184Y23919D02*
X31019Y23084D01*
X30184Y23919D02*
X31478Y25214D01*
X32314Y24378D01*
X10119Y23084D02*
X11414Y24378D01*
X9284Y23919D02*
X10119Y23084D01*
X9284Y23919D02*
X10578Y25214D01*
X11414Y24378D01*
X27219Y23084D02*
X28514Y24378D01*
X26384Y23919D02*
X27219Y23084D01*
X26384Y23919D02*
X27678Y25214D01*
X28514Y24378D01*
X2519Y23084D02*
X3814Y24378D01*
X1684Y23919D02*
X2519Y23084D01*
X1684Y23919D02*
X2978Y25214D01*
X3814Y24378D01*
X29119Y23084D02*
X30414Y24378D01*
X28284Y23919D02*
X29119Y23084D01*
X28284Y23919D02*
X29578Y25214D01*
X30414Y24378D01*
X12019Y23084D02*
X13314Y24378D01*
X11184Y23919D02*
X12019Y23084D01*
X11184Y23919D02*
X12478Y25214D01*
X13314Y24378D01*
X8219Y23084D02*
X9514Y24378D01*
X7384Y23919D02*
X8219Y23084D01*
X7384Y23919D02*
X8678Y25214D01*
X9514Y24378D01*
X25319Y23084D02*
X26614Y24378D01*
X24484Y23919D02*
X25319Y23084D01*
X24484Y23919D02*
X25778Y25214D01*
X26614Y24378D01*
X13919Y23084D02*
X15214Y24378D01*
X13084Y23919D02*
X13919Y23084D01*
X13084Y23919D02*
X14378Y25214D01*
X15214Y24378D01*
X6319Y23084D02*
X7614Y24378D01*
X5484Y23919D02*
X6319Y23084D01*
X5484Y23919D02*
X6778Y25214D01*
X7614Y24378D01*
X21519Y23084D02*
X22814Y24378D01*
X20684Y23919D02*
X21519Y23084D01*
X20684Y23919D02*
X21978Y25214D01*
X22814Y24378D01*
X19619Y23084D02*
X20914Y24378D01*
X18784Y23919D02*
X19619Y23084D01*
X18784Y23919D02*
X20078Y25214D01*
X20914Y24378D01*
X25319Y24984D02*
X26614Y26278D01*
X24484Y25819D02*
X25319Y24984D01*
X24484Y25819D02*
X25778Y27114D01*
X26614Y26278D01*
X19619Y24984D02*
X20914Y26278D01*
X18784Y25819D02*
X19619Y24984D01*
X18784Y25819D02*
X20078Y27114D01*
X20914Y26278D01*
X15819Y24984D02*
X17114Y26278D01*
X14984Y25819D02*
X15819Y24984D01*
X14984Y25819D02*
X16278Y27114D01*
X17114Y26278D01*
X8219Y24984D02*
X9514Y26278D01*
X7384Y25819D02*
X8219Y24984D01*
X7384Y25819D02*
X8678Y27114D01*
X9514Y26278D01*
X23419Y24984D02*
X24714Y26278D01*
X22584Y25819D02*
X23419Y24984D01*
X22584Y25819D02*
X23878Y27114D01*
X24714Y26278D01*
X12019Y24984D02*
X13314Y26278D01*
X11184Y25819D02*
X12019Y24984D01*
X11184Y25819D02*
X12478Y27114D01*
X13314Y26278D01*
X17719Y24984D02*
X19014Y26278D01*
X16884Y25819D02*
X17719Y24984D01*
X16884Y25819D02*
X18178Y27114D01*
X19014Y26278D01*
X2519Y24984D02*
X3814Y26278D01*
X1684Y25819D02*
X2519Y24984D01*
X1684Y25819D02*
X2978Y27114D01*
X3814Y26278D01*
X29119Y24984D02*
X30414Y26278D01*
X28284Y25819D02*
X29119Y24984D01*
X28284Y25819D02*
X29578Y27114D01*
X30414Y26278D01*
X10119Y24984D02*
X11414Y26278D01*
X9284Y25819D02*
X10119Y24984D01*
X9284Y25819D02*
X10578Y27114D01*
X11414Y26278D01*
X4419Y24984D02*
X5714Y26278D01*
X3584Y25819D02*
X4419Y24984D01*
X3584Y25819D02*
X4878Y27114D01*
X5714Y26278D01*
X31019Y24984D02*
X32314Y26278D01*
X30184Y25819D02*
X31019Y24984D01*
X30184Y25819D02*
X31478Y27114D01*
X32314Y26278D01*
X13919Y24984D02*
X15214Y26278D01*
X13084Y25819D02*
X13919Y24984D01*
X13084Y25819D02*
X14378Y27114D01*
X15214Y26278D01*
X27219Y24984D02*
X28514Y26278D01*
X26384Y25819D02*
X27219Y24984D01*
X26384Y25819D02*
X27678Y27114D01*
X28514Y26278D01*
X21519Y24984D02*
X22814Y26278D01*
X20684Y25819D02*
X21519Y24984D01*
X20684Y25819D02*
X21978Y27114D01*
X22814Y26278D01*
X6319Y24984D02*
X7614Y26278D01*
X5484Y25819D02*
X6319Y24984D01*
X5484Y25819D02*
X6778Y27114D01*
X7614Y26278D01*
X8219Y26884D02*
X9514Y28178D01*
X7384Y27719D02*
X8219Y26884D01*
X7384Y27719D02*
X8678Y29014D01*
X9514Y28178D01*
X27219Y26884D02*
X28514Y28178D01*
X26384Y27719D02*
X27219Y26884D01*
X26384Y27719D02*
X27678Y29014D01*
X28514Y28178D01*
X13928Y26893D02*
X15222Y28187D01*
X13093Y27728D02*
X13928Y26893D01*
X13093Y27728D02*
X14387Y29022D01*
X15222Y28187D01*
X2519Y26884D02*
X3814Y28178D01*
X1684Y27719D02*
X2519Y26884D01*
X1684Y27719D02*
X2978Y29014D01*
X3814Y28178D01*
X25319Y26884D02*
X26614Y28178D01*
X24484Y27719D02*
X25319Y26884D01*
X24484Y27719D02*
X25778Y29014D01*
X26614Y28178D01*
X23419Y26884D02*
X24714Y28178D01*
X22584Y27719D02*
X23419Y26884D01*
X22584Y27719D02*
X23878Y29014D01*
X24714Y28178D01*
X12019Y26884D02*
X13314Y28178D01*
X11184Y27719D02*
X12019Y26884D01*
X11184Y27719D02*
X12478Y29014D01*
X13314Y28178D01*
X6319Y26884D02*
X7614Y28178D01*
X5484Y27719D02*
X6319Y26884D01*
X5484Y27719D02*
X6778Y29014D01*
X7614Y28178D01*
X19619Y26884D02*
X20914Y28178D01*
X18784Y27719D02*
X19619Y26884D01*
X18784Y27719D02*
X20078Y29014D01*
X20914Y28178D01*
X31019Y26884D02*
X32314Y28178D01*
X30184Y27719D02*
X31019Y26884D01*
X30184Y27719D02*
X31478Y29014D01*
X32314Y28178D01*
X21519Y26884D02*
X22814Y28178D01*
X20684Y27719D02*
X21519Y26884D01*
X20684Y27719D02*
X21978Y29014D01*
X22814Y28178D01*
X10119Y26884D02*
X11414Y28178D01*
X9284Y27719D02*
X10119Y26884D01*
X9284Y27719D02*
X10578Y29014D01*
X11414Y28178D01*
X15828Y26893D02*
X17122Y28187D01*
X14993Y27728D02*
X15828Y26893D01*
X14993Y27728D02*
X16287Y29022D01*
X17122Y28187D01*
X17719Y26884D02*
X19014Y28178D01*
X16884Y27719D02*
X17719Y26884D01*
X16884Y27719D02*
X18178Y29014D01*
X19014Y28178D01*
X29119Y26884D02*
X30414Y28178D01*
X28284Y27719D02*
X29119Y26884D01*
X28284Y27719D02*
X29578Y29014D01*
X30414Y28178D01*
X4419Y26884D02*
X5714Y28178D01*
X3584Y27719D02*
X4419Y26884D01*
X3584Y27719D02*
X4878Y29014D01*
X5714Y28178D01*
X10110Y28775D02*
X11405Y30070D01*
X9275Y29610D02*
X10110Y28775D01*
X9275Y29610D02*
X10570Y30905D01*
X11405Y30070D01*
X12019Y28784D02*
X13314Y30078D01*
X11184Y29619D02*
X12019Y28784D01*
X11184Y29619D02*
X12478Y30914D01*
X13314Y30078D01*
X19619Y28784D02*
X20914Y30078D01*
X18784Y29619D02*
X19619Y28784D01*
X18784Y29619D02*
X20078Y30914D01*
X20914Y30078D01*
X27219Y28784D02*
X28514Y30078D01*
X26384Y29619D02*
X27219Y28784D01*
X26384Y29619D02*
X27678Y30914D01*
X28514Y30078D01*
X6319Y28784D02*
X7614Y30078D01*
X5484Y29619D02*
X6319Y28784D01*
X5484Y29619D02*
X6778Y30914D01*
X7614Y30078D01*
X29119Y28784D02*
X30414Y30078D01*
X28284Y29619D02*
X29119Y28784D01*
X28284Y29619D02*
X29578Y30914D01*
X30414Y30078D01*
X2519Y28784D02*
X3814Y30078D01*
X1684Y29619D02*
X2519Y28784D01*
X1684Y29619D02*
X2978Y30914D01*
X3814Y30078D01*
X31019Y28784D02*
X32314Y30078D01*
X30184Y29619D02*
X31019Y28784D01*
X30184Y29619D02*
X31478Y30914D01*
X32314Y30078D01*
X21519Y28784D02*
X22814Y30078D01*
X20684Y29619D02*
X21519Y28784D01*
X20684Y29619D02*
X21978Y30914D01*
X22814Y30078D01*
X8219Y28784D02*
X9514Y30078D01*
X7384Y29619D02*
X8219Y28784D01*
X7384Y29619D02*
X8678Y30914D01*
X9514Y30078D01*
X23419Y28784D02*
X24714Y30078D01*
X22584Y29619D02*
X23419Y28784D01*
X22584Y29619D02*
X23878Y30914D01*
X24714Y30078D01*
X25319Y28784D02*
X26614Y30078D01*
X24484Y29619D02*
X25319Y28784D01*
X24484Y29619D02*
X25778Y30914D01*
X26614Y30078D01*
X15819Y28784D02*
X17114Y30078D01*
X14984Y29619D02*
X15819Y28784D01*
X14984Y29619D02*
X16278Y30914D01*
X17114Y30078D01*
X4419Y28784D02*
X5714Y30078D01*
X3584Y29619D02*
X4419Y28784D01*
X3584Y29619D02*
X4878Y30914D01*
X5714Y30078D01*
X17719Y28784D02*
X19014Y30078D01*
X16884Y29619D02*
X17719Y28784D01*
X16884Y29619D02*
X18178Y30914D01*
X19014Y30078D01*
X13919Y28784D02*
X15214Y30078D01*
X13084Y29619D02*
X13919Y28784D01*
X13084Y29619D02*
X14378Y30914D01*
X15214Y30078D01*
X4419Y32584D02*
X5714Y33878D01*
X3584Y33419D02*
X4419Y32584D01*
X3584Y33419D02*
X4878Y34714D01*
X5714Y33878D01*
X6319Y32584D02*
X7614Y33878D01*
X5484Y33419D02*
X6319Y32584D01*
X5484Y33419D02*
X6778Y34714D01*
X7614Y33878D01*
X2519Y32584D02*
X3814Y33878D01*
X1684Y33419D02*
X2519Y32584D01*
X1684Y33419D02*
X2978Y34714D01*
X3814Y33878D01*
X21528Y32593D02*
X22822Y33887D01*
X20693Y33428D02*
X21528Y32593D01*
X20693Y33428D02*
X21987Y34722D01*
X22822Y33887D01*
X31010Y32575D02*
X32305Y33870D01*
X30175Y33410D02*
X31010Y32575D01*
X30175Y33410D02*
X31470Y34705D01*
X32305Y33870D01*
X25328Y32593D02*
X26622Y33887D01*
X24493Y33428D02*
X25328Y32593D01*
X24493Y33428D02*
X25787Y34722D01*
X26622Y33887D01*
X15828Y32593D02*
X17122Y33887D01*
X14993Y33428D02*
X15828Y32593D01*
X14993Y33428D02*
X16287Y34722D01*
X17122Y33887D01*
X12019Y32584D02*
X13314Y33878D01*
X11184Y33419D02*
X12019Y32584D01*
X11184Y33419D02*
X12478Y34714D01*
X13314Y33878D01*
X17728Y32593D02*
X19022Y33887D01*
X16893Y33428D02*
X17728Y32593D01*
X16893Y33428D02*
X18187Y34722D01*
X19022Y33887D01*
X8219Y32584D02*
X9514Y33878D01*
X7384Y33419D02*
X8219Y32584D01*
X7384Y33419D02*
X8678Y34714D01*
X9514Y33878D01*
X23428Y32593D02*
X24722Y33887D01*
X22593Y33428D02*
X23428Y32593D01*
X22593Y33428D02*
X23887Y34722D01*
X24722Y33887D01*
X13928Y32593D02*
X15222Y33887D01*
X13093Y33428D02*
X13928Y32593D01*
X13093Y33428D02*
X14387Y34722D01*
X15222Y33887D01*
X19619Y32584D02*
X20914Y33878D01*
X18784Y33419D02*
X19619Y32584D01*
X18784Y33419D02*
X20078Y34714D01*
X20914Y33878D01*
X10119Y32584D02*
X11414Y33878D01*
X9284Y33419D02*
X10119Y32584D01*
X9284Y33419D02*
X10578Y34714D01*
X11414Y33878D01*
X29119Y32584D02*
X30414Y33878D01*
X28284Y33419D02*
X29119Y32584D01*
X28284Y33419D02*
X29578Y34714D01*
X30414Y33878D01*
X27228Y32593D02*
X28522Y33887D01*
X26393Y33428D02*
X27228Y32593D01*
X26393Y33428D02*
X27687Y34722D01*
X28522Y33887D01*
X15819Y13584D02*
X17114Y14878D01*
X14984Y14419D02*
X15819Y13584D01*
X14984Y14419D02*
X16278Y15714D01*
X17114Y14878D01*
D11*
X4684Y5462D02*
X4962Y5184D01*
X4238Y5016D02*
X4684Y5462D01*
X4238Y5016D02*
X4516Y4738D01*
X4962Y5184D01*
X14184Y5462D02*
X14462Y5184D01*
X13738Y5016D02*
X14184Y5462D01*
X13738Y5016D02*
X14016Y4738D01*
X14462Y5184D01*
X2616Y31338D02*
X3062Y31784D01*
X2338Y31616D02*
X2616Y31338D01*
X2338Y31616D02*
X2784Y32062D01*
X3062Y31784D01*
X4516Y31338D02*
X4962Y31784D01*
X4238Y31616D02*
X4516Y31338D01*
X4238Y31616D02*
X4684Y32062D01*
X4962Y31784D01*
X31116Y31338D02*
X31562Y31784D01*
X30838Y31616D02*
X31116Y31338D01*
X30838Y31616D02*
X31284Y32062D01*
X31562Y31784D01*
X25416Y31338D02*
X25862Y31784D01*
X25138Y31616D02*
X25416Y31338D01*
X25138Y31616D02*
X25584Y32062D01*
X25862Y31784D01*
X29216Y31338D02*
X29662Y31784D01*
X28938Y31616D02*
X29216Y31338D01*
X28938Y31616D02*
X29384Y32062D01*
X29662Y31784D01*
X27316Y31338D02*
X27762Y31784D01*
X27038Y31616D02*
X27316Y31338D01*
X27038Y31616D02*
X27484Y32062D01*
X27762Y31784D01*
X19725Y31347D02*
X20171Y31792D01*
X19447Y31625D02*
X19725Y31347D01*
X19447Y31625D02*
X19892Y32071D01*
X20171Y31792D01*
X14016Y31338D02*
X14462Y31784D01*
X13738Y31616D02*
X14016Y31338D01*
X13738Y31616D02*
X14184Y32062D01*
X14462Y31784D01*
X15916Y31338D02*
X16362Y31784D01*
X15638Y31616D02*
X15916Y31338D01*
X15638Y31616D02*
X16084Y32062D01*
X16362Y31784D01*
X21616Y31338D02*
X22062Y31784D01*
X21338Y31616D02*
X21616Y31338D01*
X21338Y31616D02*
X21784Y32062D01*
X22062Y31784D01*
X23525Y31347D02*
X23971Y31792D01*
X23247Y31625D02*
X23525Y31347D01*
X23247Y31625D02*
X23692Y32071D01*
X23971Y31792D01*
X17825Y31347D02*
X18271Y31792D01*
X17547Y31625D02*
X17825Y31347D01*
X17547Y31625D02*
X17992Y32071D01*
X18271Y31792D01*
X10216Y31338D02*
X10662Y31784D01*
X9938Y31616D02*
X10216Y31338D01*
X9938Y31616D02*
X10384Y32062D01*
X10662Y31784D01*
X12125Y31347D02*
X12571Y31792D01*
X11847Y31625D02*
X12125Y31347D01*
X11847Y31625D02*
X12292Y32071D01*
X12571Y31792D01*
X8325Y31347D02*
X8771Y31792D01*
X8047Y31625D02*
X8325Y31347D01*
X8047Y31625D02*
X8492Y32071D01*
X8771Y31792D01*
X6416Y31338D02*
X6862Y31784D01*
X6138Y31616D02*
X6416Y31338D01*
X6138Y31616D02*
X6584Y32062D01*
X6862Y31784D01*
X23616Y4738D02*
X24062Y5184D01*
X23338Y5016D02*
X23616Y4738D01*
X23338Y5016D02*
X23784Y5462D01*
X24062Y5184D01*
X6416Y4738D02*
X6862Y5184D01*
X6138Y5016D02*
X6416Y4738D01*
X6138Y5016D02*
X6584Y5462D01*
X6862Y5184D01*
X21716Y4738D02*
X22162Y5184D01*
X21438Y5016D02*
X21716Y4738D01*
X21438Y5016D02*
X21884Y5462D01*
X22162Y5184D01*
X27416Y4738D02*
X27862Y5184D01*
X27138Y5016D02*
X27416Y4738D01*
X27138Y5016D02*
X27584Y5462D01*
X27862Y5184D01*
X25516Y4738D02*
X25962Y5184D01*
X25238Y5016D02*
X25516Y4738D01*
X25238Y5016D02*
X25684Y5462D01*
X25962Y5184D01*
X19716Y4738D02*
X20162Y5184D01*
X19438Y5016D02*
X19716Y4738D01*
X19438Y5016D02*
X19884Y5462D01*
X20162Y5184D01*
X10216Y4738D02*
X10662Y5184D01*
X9938Y5016D02*
X10216Y4738D01*
X9938Y5016D02*
X10384Y5462D01*
X10662Y5184D01*
X12116Y4738D02*
X12562Y5184D01*
X11838Y5016D02*
X12116Y4738D01*
X11838Y5016D02*
X12284Y5462D01*
X12562Y5184D01*
X17816Y4738D02*
X18262Y5184D01*
X17538Y5016D02*
X17816Y4738D01*
X17538Y5016D02*
X17984Y5462D01*
X18262Y5184D01*
X8316Y4738D02*
X8762Y5184D01*
X8038Y5016D02*
X8316Y4738D01*
X8038Y5016D02*
X8484Y5462D01*
X8762Y5184D01*
X15916Y4738D02*
X16362Y5184D01*
X15638Y5016D02*
X15916Y4738D01*
X15638Y5016D02*
X16084Y5462D01*
X16362Y5184D01*
X2616Y4738D02*
X3062Y5184D01*
X2338Y5016D02*
X2616Y4738D01*
X2338Y5016D02*
X2784Y5462D01*
X3062Y5184D01*
X31216Y4738D02*
X31662Y5184D01*
X30938Y5016D02*
X31216Y4738D01*
X30938Y5016D02*
X31384Y5462D01*
X31662Y5184D01*
X29316Y4738D02*
X29762Y5184D01*
X29038Y5016D02*
X29316Y4738D01*
X29038Y5016D02*
X29484Y5462D01*
X29762Y5184D01*
X19716Y6638D02*
X20162Y7084D01*
X19438Y6916D02*
X19716Y6638D01*
X19438Y6916D02*
X19884Y7362D01*
X20162Y7084D01*
X31216Y6638D02*
X31662Y7084D01*
X30938Y6916D02*
X31216Y6638D01*
X30938Y6916D02*
X31384Y7362D01*
X31662Y7084D01*
X21716Y6638D02*
X22162Y7084D01*
X21438Y6916D02*
X21716Y6638D01*
X21438Y6916D02*
X21884Y7362D01*
X22162Y7084D01*
X23616Y6638D02*
X24062Y7084D01*
X23338Y6916D02*
X23616Y6638D01*
X23338Y6916D02*
X23784Y7362D01*
X24062Y7084D01*
X6425Y6647D02*
X6871Y7092D01*
X6147Y6925D02*
X6425Y6647D01*
X6147Y6925D02*
X6592Y7371D01*
X6871Y7092D01*
X17816Y6638D02*
X18262Y7084D01*
X17538Y6916D02*
X17816Y6638D01*
X17538Y6916D02*
X17984Y7362D01*
X18262Y7084D01*
X14016Y6638D02*
X14462Y7084D01*
X13738Y6916D02*
X14016Y6638D01*
X13738Y6916D02*
X14184Y7362D01*
X14462Y7084D01*
X10216Y6638D02*
X10662Y7084D01*
X9938Y6916D02*
X10216Y6638D01*
X9938Y6916D02*
X10384Y7362D01*
X10662Y7084D01*
X12116Y6638D02*
X12562Y7084D01*
X11838Y6916D02*
X12116Y6638D01*
X11838Y6916D02*
X12284Y7362D01*
X12562Y7084D01*
X8316Y6638D02*
X8762Y7084D01*
X8038Y6916D02*
X8316Y6638D01*
X8038Y6916D02*
X8484Y7362D01*
X8762Y7084D01*
X2616Y6638D02*
X3062Y7084D01*
X2338Y6916D02*
X2616Y6638D01*
X2338Y6916D02*
X2784Y7362D01*
X3062Y7084D01*
X15916Y6638D02*
X16362Y7084D01*
X15638Y6916D02*
X15916Y6638D01*
X15638Y6916D02*
X16084Y7362D01*
X16362Y7084D01*
X25516Y6638D02*
X25962Y7084D01*
X25238Y6916D02*
X25516Y6638D01*
X25238Y6916D02*
X25684Y7362D01*
X25962Y7084D01*
X27416Y6638D02*
X27862Y7084D01*
X27138Y6916D02*
X27416Y6638D01*
X27138Y6916D02*
X27584Y7362D01*
X27862Y7084D01*
X4516Y6638D02*
X4962Y7084D01*
X4238Y6916D02*
X4516Y6638D01*
X4238Y6916D02*
X4684Y7362D01*
X4962Y7084D01*
X29316Y6638D02*
X29762Y7084D01*
X29038Y6916D02*
X29316Y6638D01*
X29038Y6916D02*
X29484Y7362D01*
X29762Y7084D01*
X17816Y8538D02*
X18262Y8984D01*
X17538Y8816D02*
X17816Y8538D01*
X17538Y8816D02*
X17984Y9262D01*
X18262Y8984D01*
X19716Y8538D02*
X20162Y8984D01*
X19438Y8816D02*
X19716Y8538D01*
X19438Y8816D02*
X19884Y9262D01*
X20162Y8984D01*
X8316Y8538D02*
X8762Y8984D01*
X8038Y8816D02*
X8316Y8538D01*
X8038Y8816D02*
X8484Y9262D01*
X8762Y8984D01*
X2616Y8538D02*
X3062Y8984D01*
X2338Y8816D02*
X2616Y8538D01*
X2338Y8816D02*
X2784Y9262D01*
X3062Y8984D01*
X10216Y8538D02*
X10662Y8984D01*
X9938Y8816D02*
X10216Y8538D01*
X9938Y8816D02*
X10384Y9262D01*
X10662Y8984D01*
X29326Y8538D02*
X29771Y8984D01*
X29047Y8816D02*
X29326Y8538D01*
X29047Y8816D02*
X29493Y9262D01*
X29771Y8984D01*
X12107Y8538D02*
X12553Y8984D01*
X11829Y8816D02*
X12107Y8538D01*
X11829Y8816D02*
X12274Y9262D01*
X12553Y8984D01*
X13998Y8538D02*
X14444Y8984D01*
X13720Y8816D02*
X13998Y8538D01*
X13720Y8816D02*
X14165Y9262D01*
X14444Y8984D01*
X4516Y8538D02*
X4962Y8984D01*
X4238Y8816D02*
X4516Y8538D01*
X4238Y8816D02*
X4684Y9262D01*
X4962Y8984D01*
X15916Y8538D02*
X16362Y8984D01*
X15638Y8816D02*
X15916Y8538D01*
X15638Y8816D02*
X16084Y9262D01*
X16362Y8984D01*
X27435Y8538D02*
X27880Y8984D01*
X27156Y8816D02*
X27435Y8538D01*
X27156Y8816D02*
X27602Y9262D01*
X27880Y8984D01*
X25544Y8538D02*
X25989Y8984D01*
X25265Y8816D02*
X25544Y8538D01*
X25265Y8816D02*
X25711Y9262D01*
X25989Y8984D01*
X31216Y8538D02*
X31662Y8984D01*
X30938Y8816D02*
X31216Y8538D01*
X30938Y8816D02*
X31384Y9262D01*
X31662Y8984D01*
X21662Y8538D02*
X22107Y8984D01*
X21384Y8816D02*
X21662Y8538D01*
X21384Y8816D02*
X21829Y9262D01*
X22107Y8984D01*
X6425Y8547D02*
X6871Y8992D01*
X6147Y8825D02*
X6425Y8547D01*
X6147Y8825D02*
X6592Y9271D01*
X6871Y8992D01*
X23553Y8538D02*
X23998Y8984D01*
X23274Y8816D02*
X23553Y8538D01*
X23274Y8816D02*
X23720Y9262D01*
X23998Y8984D01*
X2616Y10438D02*
X3062Y10884D01*
X2338Y10716D02*
X2616Y10438D01*
X2338Y10716D02*
X2784Y11162D01*
X3062Y10884D01*
X29316Y10438D02*
X29762Y10884D01*
X29038Y10716D02*
X29316Y10438D01*
X29038Y10716D02*
X29484Y11162D01*
X29762Y10884D01*
X10216Y10438D02*
X10662Y10884D01*
X9938Y10716D02*
X10216Y10438D01*
X9938Y10716D02*
X10384Y11162D01*
X10662Y10884D01*
X6416Y10438D02*
X6862Y10884D01*
X6138Y10716D02*
X6416Y10438D01*
X6138Y10716D02*
X6584Y11162D01*
X6862Y10884D01*
X25516Y10438D02*
X25962Y10884D01*
X25238Y10716D02*
X25516Y10438D01*
X25238Y10716D02*
X25684Y11162D01*
X25962Y10884D01*
X15916Y10438D02*
X16362Y10884D01*
X15638Y10716D02*
X15916Y10438D01*
X15638Y10716D02*
X16084Y11162D01*
X16362Y10884D01*
X14016Y10438D02*
X14462Y10884D01*
X13738Y10716D02*
X14016Y10438D01*
X13738Y10716D02*
X14184Y11162D01*
X14462Y10884D01*
X23516Y10438D02*
X23962Y10884D01*
X23238Y10716D02*
X23516Y10438D01*
X23238Y10716D02*
X23684Y11162D01*
X23962Y10884D01*
X12116Y10438D02*
X12562Y10884D01*
X11838Y10716D02*
X12116Y10438D01*
X11838Y10716D02*
X12284Y11162D01*
X12562Y10884D01*
X31216Y10438D02*
X31662Y10884D01*
X30938Y10716D02*
X31216Y10438D01*
X30938Y10716D02*
X31384Y11162D01*
X31662Y10884D01*
X19725Y10447D02*
X20171Y10892D01*
X19447Y10725D02*
X19725Y10447D01*
X19447Y10725D02*
X19892Y11171D01*
X20171Y10892D01*
X8316Y10438D02*
X8762Y10884D01*
X8038Y10716D02*
X8316Y10438D01*
X8038Y10716D02*
X8484Y11162D01*
X8762Y10884D01*
X17816Y10438D02*
X18262Y10884D01*
X17538Y10716D02*
X17816Y10438D01*
X17538Y10716D02*
X17984Y11162D01*
X18262Y10884D01*
X4516Y10438D02*
X4962Y10884D01*
X4238Y10716D02*
X4516Y10438D01*
X4238Y10716D02*
X4684Y11162D01*
X4962Y10884D01*
X27416Y10438D02*
X27862Y10884D01*
X27138Y10716D02*
X27416Y10438D01*
X27138Y10716D02*
X27584Y11162D01*
X27862Y10884D01*
X21616Y10438D02*
X22062Y10884D01*
X21338Y10716D02*
X21616Y10438D01*
X21338Y10716D02*
X21784Y11162D01*
X22062Y10884D01*
X25462Y12347D02*
X25907Y12792D01*
X25183Y12625D02*
X25462Y12347D01*
X25183Y12625D02*
X25629Y13071D01*
X25907Y12792D01*
X29316Y12338D02*
X29762Y12784D01*
X29038Y12616D02*
X29316Y12338D01*
X29038Y12616D02*
X29484Y13062D01*
X29762Y12784D01*
X12089Y12338D02*
X12535Y12784D01*
X11811Y12616D02*
X12089Y12338D01*
X11811Y12616D02*
X12256Y13062D01*
X12535Y12784D01*
X27416Y12338D02*
X27862Y12784D01*
X27138Y12616D02*
X27416Y12338D01*
X27138Y12616D02*
X27584Y13062D01*
X27862Y12784D01*
X17816Y12338D02*
X18262Y12784D01*
X17538Y12616D02*
X17816Y12338D01*
X17538Y12616D02*
X17984Y13062D01*
X18262Y12784D01*
X21616Y12347D02*
X22062Y12792D01*
X21338Y12625D02*
X21616Y12347D01*
X21338Y12625D02*
X21783Y13071D01*
X22062Y12792D01*
X19725Y12347D02*
X20171Y12792D01*
X19447Y12625D02*
X19725Y12347D01*
X19447Y12625D02*
X19892Y13071D01*
X20171Y12792D01*
X23516Y12338D02*
X23962Y12784D01*
X23238Y12616D02*
X23516Y12338D01*
X23238Y12616D02*
X23684Y13062D01*
X23962Y12784D01*
X14025Y12347D02*
X14471Y12792D01*
X13747Y12625D02*
X14025Y12347D01*
X13747Y12625D02*
X14192Y13071D01*
X14471Y12792D01*
X31216Y12338D02*
X31662Y12784D01*
X30938Y12616D02*
X31216Y12338D01*
X30938Y12616D02*
X31384Y13062D01*
X31662Y12784D01*
X15898Y12347D02*
X16343Y12792D01*
X15620Y12625D02*
X15898Y12347D01*
X15620Y12625D02*
X16065Y13071D01*
X16343Y12792D01*
X6416Y12338D02*
X6862Y12784D01*
X6138Y12616D02*
X6416Y12338D01*
X6138Y12616D02*
X6584Y13062D01*
X6862Y12784D01*
X2616Y12338D02*
X3062Y12784D01*
X2338Y12616D02*
X2616Y12338D01*
X2338Y12616D02*
X2784Y13062D01*
X3062Y12784D01*
X10216Y12338D02*
X10662Y12784D01*
X9938Y12616D02*
X10216Y12338D01*
X9938Y12616D02*
X10384Y13062D01*
X10662Y12784D01*
X4516Y12338D02*
X4962Y12784D01*
X4238Y12616D02*
X4516Y12338D01*
X4238Y12616D02*
X4684Y13062D01*
X4962Y12784D01*
X8316Y12338D02*
X8762Y12784D01*
X8038Y12616D02*
X8316Y12338D01*
X8038Y12616D02*
X8484Y13062D01*
X8762Y12784D01*
X10216Y14238D02*
X10662Y14684D01*
X9938Y14516D02*
X10216Y14238D01*
X9938Y14516D02*
X10384Y14962D01*
X10662Y14684D01*
X12116Y14238D02*
X12562Y14684D01*
X11838Y14516D02*
X12116Y14238D01*
X11838Y14516D02*
X12284Y14962D01*
X12562Y14684D01*
X29316Y14238D02*
X29762Y14684D01*
X29038Y14516D02*
X29316Y14238D01*
X29038Y14516D02*
X29484Y14962D01*
X29762Y14684D01*
X21616Y14238D02*
X22062Y14684D01*
X21338Y14516D02*
X21616Y14238D01*
X21338Y14516D02*
X21784Y14962D01*
X22062Y14684D01*
X8316Y14238D02*
X8762Y14684D01*
X8038Y14516D02*
X8316Y14238D01*
X8038Y14516D02*
X8484Y14962D01*
X8762Y14684D01*
X27416Y14238D02*
X27862Y14684D01*
X27138Y14516D02*
X27416Y14238D01*
X27138Y14516D02*
X27584Y14962D01*
X27862Y14684D01*
X4516Y14238D02*
X4962Y14684D01*
X4238Y14516D02*
X4516Y14238D01*
X4238Y14516D02*
X4684Y14962D01*
X4962Y14684D01*
X2616Y14238D02*
X3062Y14684D01*
X2338Y14516D02*
X2616Y14238D01*
X2338Y14516D02*
X2784Y14962D01*
X3062Y14684D01*
X23516Y14238D02*
X23962Y14684D01*
X23238Y14516D02*
X23516Y14238D01*
X23238Y14516D02*
X23684Y14962D01*
X23962Y14684D01*
X19716Y14238D02*
X20162Y14684D01*
X19438Y14516D02*
X19716Y14238D01*
X19438Y14516D02*
X19884Y14962D01*
X20162Y14684D01*
X31216Y14238D02*
X31662Y14684D01*
X30938Y14516D02*
X31216Y14238D01*
X30938Y14516D02*
X31384Y14962D01*
X31662Y14684D01*
X25416Y14238D02*
X25862Y14684D01*
X25138Y14516D02*
X25416Y14238D01*
X25138Y14516D02*
X25584Y14962D01*
X25862Y14684D01*
X14016Y14238D02*
X14462Y14684D01*
X13738Y14516D02*
X14016Y14238D01*
X13738Y14516D02*
X14184Y14962D01*
X14462Y14684D01*
X6416Y14238D02*
X6862Y14684D01*
X6138Y14516D02*
X6416Y14238D01*
X6138Y14516D02*
X6584Y14962D01*
X6862Y14684D01*
X17816Y14238D02*
X18262Y14684D01*
X17538Y14516D02*
X17816Y14238D01*
X17538Y14516D02*
X17984Y14962D01*
X18262Y14684D01*
X23516Y16138D02*
X23962Y16584D01*
X23238Y16416D02*
X23516Y16138D01*
X23238Y16416D02*
X23684Y16862D01*
X23962Y16584D01*
X25416Y16138D02*
X25862Y16584D01*
X25138Y16416D02*
X25416Y16138D01*
X25138Y16416D02*
X25584Y16862D01*
X25862Y16584D01*
X14016Y16138D02*
X14462Y16584D01*
X13738Y16416D02*
X14016Y16138D01*
X13738Y16416D02*
X14184Y16862D01*
X14462Y16584D01*
X31216Y16138D02*
X31662Y16584D01*
X30938Y16416D02*
X31216Y16138D01*
X30938Y16416D02*
X31384Y16862D01*
X31662Y16584D01*
X27316Y16138D02*
X27762Y16584D01*
X27038Y16416D02*
X27316Y16138D01*
X27038Y16416D02*
X27484Y16862D01*
X27762Y16584D01*
X4516Y16138D02*
X4962Y16584D01*
X4238Y16416D02*
X4516Y16138D01*
X4238Y16416D02*
X4684Y16862D01*
X4962Y16584D01*
X21616Y16138D02*
X22062Y16584D01*
X21338Y16416D02*
X21616Y16138D01*
X21338Y16416D02*
X21784Y16862D01*
X22062Y16584D01*
X15916Y16138D02*
X16362Y16584D01*
X15638Y16416D02*
X15916Y16138D01*
X15638Y16416D02*
X16084Y16862D01*
X16362Y16584D01*
X10216Y16138D02*
X10662Y16584D01*
X9938Y16416D02*
X10216Y16138D01*
X9938Y16416D02*
X10384Y16862D01*
X10662Y16584D01*
X6416Y16138D02*
X6862Y16584D01*
X6138Y16416D02*
X6416Y16138D01*
X6138Y16416D02*
X6584Y16862D01*
X6862Y16584D01*
X12116Y16138D02*
X12562Y16584D01*
X11838Y16416D02*
X12116Y16138D01*
X11838Y16416D02*
X12284Y16862D01*
X12562Y16584D01*
X2608Y16129D02*
X3053Y16575D01*
X2329Y16408D02*
X2608Y16129D01*
X2329Y16408D02*
X2775Y16853D01*
X3053Y16575D01*
X19716Y16138D02*
X20162Y16584D01*
X19438Y16416D02*
X19716Y16138D01*
X19438Y16416D02*
X19884Y16862D01*
X20162Y16584D01*
X8316Y16138D02*
X8762Y16584D01*
X8038Y16416D02*
X8316Y16138D01*
X8038Y16416D02*
X8484Y16862D01*
X8762Y16584D01*
X29316Y16138D02*
X29762Y16584D01*
X29038Y16416D02*
X29316Y16138D01*
X29038Y16416D02*
X29484Y16862D01*
X29762Y16584D01*
X17816Y16138D02*
X18262Y16584D01*
X17538Y16416D02*
X17816Y16138D01*
X17538Y16416D02*
X17984Y16862D01*
X18262Y16584D01*
X25416Y18038D02*
X25862Y18484D01*
X25138Y18316D02*
X25416Y18038D01*
X25138Y18316D02*
X25584Y18762D01*
X25862Y18484D01*
X21616Y18038D02*
X22062Y18484D01*
X21338Y18316D02*
X21616Y18038D01*
X21338Y18316D02*
X21784Y18762D01*
X22062Y18484D01*
X6416Y18038D02*
X6862Y18484D01*
X6138Y18316D02*
X6416Y18038D01*
X6138Y18316D02*
X6584Y18762D01*
X6862Y18484D01*
X19716Y18038D02*
X20162Y18484D01*
X19438Y18316D02*
X19716Y18038D01*
X19438Y18316D02*
X19884Y18762D01*
X20162Y18484D01*
X8316Y18038D02*
X8762Y18484D01*
X8038Y18316D02*
X8316Y18038D01*
X8038Y18316D02*
X8484Y18762D01*
X8762Y18484D01*
X23516Y18038D02*
X23962Y18484D01*
X23238Y18316D02*
X23516Y18038D01*
X23238Y18316D02*
X23684Y18762D01*
X23962Y18484D01*
X17816Y18038D02*
X18262Y18484D01*
X17538Y18316D02*
X17816Y18038D01*
X17538Y18316D02*
X17984Y18762D01*
X18262Y18484D01*
X12116Y18038D02*
X12562Y18484D01*
X11838Y18316D02*
X12116Y18038D01*
X11838Y18316D02*
X12284Y18762D01*
X12562Y18484D01*
X10216Y18038D02*
X10662Y18484D01*
X9938Y18316D02*
X10216Y18038D01*
X9938Y18316D02*
X10384Y18762D01*
X10662Y18484D01*
X27316Y18038D02*
X27762Y18484D01*
X27038Y18316D02*
X27316Y18038D01*
X27038Y18316D02*
X27484Y18762D01*
X27762Y18484D01*
X29216Y18038D02*
X29662Y18484D01*
X28938Y18316D02*
X29216Y18038D01*
X28938Y18316D02*
X29384Y18762D01*
X29662Y18484D01*
X14016Y18038D02*
X14462Y18484D01*
X13738Y18316D02*
X14016Y18038D01*
X13738Y18316D02*
X14184Y18762D01*
X14462Y18484D01*
X2616Y18038D02*
X3062Y18484D01*
X2338Y18316D02*
X2616Y18038D01*
X2338Y18316D02*
X2784Y18762D01*
X3062Y18484D01*
X15916Y18038D02*
X16362Y18484D01*
X15638Y18316D02*
X15916Y18038D01*
X15638Y18316D02*
X16084Y18762D01*
X16362Y18484D01*
X31116Y18038D02*
X31562Y18484D01*
X30838Y18316D02*
X31116Y18038D01*
X30838Y18316D02*
X31284Y18762D01*
X31562Y18484D01*
X4516Y18038D02*
X4962Y18484D01*
X4238Y18316D02*
X4516Y18038D01*
X4238Y18316D02*
X4684Y18762D01*
X4962Y18484D01*
X19716Y19938D02*
X20162Y20384D01*
X19438Y20216D02*
X19716Y19938D01*
X19438Y20216D02*
X19884Y20662D01*
X20162Y20384D01*
X2616Y19938D02*
X3062Y20384D01*
X2338Y20216D02*
X2616Y19938D01*
X2338Y20216D02*
X2784Y20662D01*
X3062Y20384D01*
X21616Y19938D02*
X22062Y20384D01*
X21338Y20216D02*
X21616Y19938D01*
X21338Y20216D02*
X21784Y20662D01*
X22062Y20384D01*
X10216Y19938D02*
X10662Y20384D01*
X9938Y20216D02*
X10216Y19938D01*
X9938Y20216D02*
X10384Y20662D01*
X10662Y20384D01*
X6416Y19938D02*
X6862Y20384D01*
X6138Y20216D02*
X6416Y19938D01*
X6138Y20216D02*
X6584Y20662D01*
X6862Y20384D01*
X12116Y19938D02*
X12562Y20384D01*
X11838Y20216D02*
X12116Y19938D01*
X11838Y20216D02*
X12284Y20662D01*
X12562Y20384D01*
X31116Y19938D02*
X31562Y20384D01*
X30838Y20216D02*
X31116Y19938D01*
X30838Y20216D02*
X31284Y20662D01*
X31562Y20384D01*
X17816Y19938D02*
X18262Y20384D01*
X17538Y20216D02*
X17816Y19938D01*
X17538Y20216D02*
X17984Y20662D01*
X18262Y20384D01*
X27316Y19938D02*
X27762Y20384D01*
X27038Y20216D02*
X27316Y19938D01*
X27038Y20216D02*
X27484Y20662D01*
X27762Y20384D01*
X23516Y19938D02*
X23962Y20384D01*
X23238Y20216D02*
X23516Y19938D01*
X23238Y20216D02*
X23684Y20662D01*
X23962Y20384D01*
X4516Y19938D02*
X4962Y20384D01*
X4238Y20216D02*
X4516Y19938D01*
X4238Y20216D02*
X4684Y20662D01*
X4962Y20384D01*
X8316Y19938D02*
X8762Y20384D01*
X8038Y20216D02*
X8316Y19938D01*
X8038Y20216D02*
X8484Y20662D01*
X8762Y20384D01*
X25416Y19938D02*
X25862Y20384D01*
X25138Y20216D02*
X25416Y19938D01*
X25138Y20216D02*
X25584Y20662D01*
X25862Y20384D01*
X14016Y19938D02*
X14462Y20384D01*
X13738Y20216D02*
X14016Y19938D01*
X13738Y20216D02*
X14184Y20662D01*
X14462Y20384D01*
X29216Y19938D02*
X29662Y20384D01*
X28938Y20216D02*
X29216Y19938D01*
X28938Y20216D02*
X29384Y20662D01*
X29662Y20384D01*
X15916Y19938D02*
X16362Y20384D01*
X15638Y20216D02*
X15916Y19938D01*
X15638Y20216D02*
X16084Y20662D01*
X16362Y20384D01*
X25416Y21838D02*
X25862Y22284D01*
X25138Y22116D02*
X25416Y21838D01*
X25138Y22116D02*
X25584Y22562D01*
X25862Y22284D01*
X4516Y21838D02*
X4962Y22284D01*
X4238Y22116D02*
X4516Y21838D01*
X4238Y22116D02*
X4684Y22562D01*
X4962Y22284D01*
X31116Y21838D02*
X31562Y22284D01*
X30838Y22116D02*
X31116Y21838D01*
X30838Y22116D02*
X31284Y22562D01*
X31562Y22284D01*
X27316Y21838D02*
X27762Y22284D01*
X27038Y22116D02*
X27316Y21838D01*
X27038Y22116D02*
X27484Y22562D01*
X27762Y22284D01*
X23516Y21838D02*
X23962Y22284D01*
X23238Y22116D02*
X23516Y21838D01*
X23238Y22116D02*
X23684Y22562D01*
X23962Y22284D01*
X29216Y21838D02*
X29662Y22284D01*
X28938Y22116D02*
X29216Y21838D01*
X28938Y22116D02*
X29384Y22562D01*
X29662Y22284D01*
X6416Y21838D02*
X6862Y22284D01*
X6138Y22116D02*
X6416Y21838D01*
X6138Y22116D02*
X6584Y22562D01*
X6862Y22284D01*
X21616Y21838D02*
X22062Y22284D01*
X21338Y22116D02*
X21616Y21838D01*
X21338Y22116D02*
X21784Y22562D01*
X22062Y22284D01*
X2616Y21838D02*
X3062Y22284D01*
X2338Y22116D02*
X2616Y21838D01*
X2338Y22116D02*
X2784Y22562D01*
X3062Y22284D01*
X14016Y21838D02*
X14462Y22284D01*
X13738Y22116D02*
X14016Y21838D01*
X13738Y22116D02*
X14184Y22562D01*
X14462Y22284D01*
X10216Y21838D02*
X10662Y22284D01*
X9938Y22116D02*
X10216Y21838D01*
X9938Y22116D02*
X10384Y22562D01*
X10662Y22284D01*
X15916Y21838D02*
X16362Y22284D01*
X15638Y22116D02*
X15916Y21838D01*
X15638Y22116D02*
X16084Y22562D01*
X16362Y22284D01*
X17816Y21838D02*
X18262Y22284D01*
X17538Y22116D02*
X17816Y21838D01*
X17538Y22116D02*
X17984Y22562D01*
X18262Y22284D01*
X8316Y21838D02*
X8762Y22284D01*
X8038Y22116D02*
X8316Y21838D01*
X8038Y22116D02*
X8484Y22562D01*
X8762Y22284D01*
X19725Y21847D02*
X20171Y22292D01*
X19447Y22125D02*
X19725Y21847D01*
X19447Y22125D02*
X19892Y22571D01*
X20171Y22292D01*
X12116Y21838D02*
X12562Y22284D01*
X11838Y22116D02*
X12116Y21838D01*
X11838Y22116D02*
X12284Y22562D01*
X12562Y22284D01*
X4516Y23738D02*
X4962Y24184D01*
X4238Y24016D02*
X4516Y23738D01*
X4238Y24016D02*
X4684Y24462D01*
X4962Y24184D01*
X15916Y23738D02*
X16362Y24184D01*
X15638Y24016D02*
X15916Y23738D01*
X15638Y24016D02*
X16084Y24462D01*
X16362Y24184D01*
X23516Y23738D02*
X23962Y24184D01*
X23238Y24016D02*
X23516Y23738D01*
X23238Y24016D02*
X23684Y24462D01*
X23962Y24184D01*
X17816Y23738D02*
X18262Y24184D01*
X17538Y24016D02*
X17816Y23738D01*
X17538Y24016D02*
X17984Y24462D01*
X18262Y24184D01*
X31116Y23738D02*
X31562Y24184D01*
X30838Y24016D02*
X31116Y23738D01*
X30838Y24016D02*
X31284Y24462D01*
X31562Y24184D01*
X10216Y23738D02*
X10662Y24184D01*
X9938Y24016D02*
X10216Y23738D01*
X9938Y24016D02*
X10384Y24462D01*
X10662Y24184D01*
X27316Y23738D02*
X27762Y24184D01*
X27038Y24016D02*
X27316Y23738D01*
X27038Y24016D02*
X27484Y24462D01*
X27762Y24184D01*
X2616Y23738D02*
X3062Y24184D01*
X2338Y24016D02*
X2616Y23738D01*
X2338Y24016D02*
X2784Y24462D01*
X3062Y24184D01*
X29216Y23738D02*
X29662Y24184D01*
X28938Y24016D02*
X29216Y23738D01*
X28938Y24016D02*
X29384Y24462D01*
X29662Y24184D01*
X12116Y23738D02*
X12562Y24184D01*
X11838Y24016D02*
X12116Y23738D01*
X11838Y24016D02*
X12284Y24462D01*
X12562Y24184D01*
X8316Y23738D02*
X8762Y24184D01*
X8038Y24016D02*
X8316Y23738D01*
X8038Y24016D02*
X8484Y24462D01*
X8762Y24184D01*
X25416Y23738D02*
X25862Y24184D01*
X25138Y24016D02*
X25416Y23738D01*
X25138Y24016D02*
X25584Y24462D01*
X25862Y24184D01*
X14016Y23738D02*
X14462Y24184D01*
X13738Y24016D02*
X14016Y23738D01*
X13738Y24016D02*
X14184Y24462D01*
X14462Y24184D01*
X6416Y23738D02*
X6862Y24184D01*
X6138Y24016D02*
X6416Y23738D01*
X6138Y24016D02*
X6584Y24462D01*
X6862Y24184D01*
X21616Y23738D02*
X22062Y24184D01*
X21338Y24016D02*
X21616Y23738D01*
X21338Y24016D02*
X21784Y24462D01*
X22062Y24184D01*
X19716Y23738D02*
X20162Y24184D01*
X19438Y24016D02*
X19716Y23738D01*
X19438Y24016D02*
X19884Y24462D01*
X20162Y24184D01*
X25416Y25638D02*
X25862Y26084D01*
X25138Y25916D02*
X25416Y25638D01*
X25138Y25916D02*
X25584Y26362D01*
X25862Y26084D01*
X19716Y25638D02*
X20162Y26084D01*
X19438Y25916D02*
X19716Y25638D01*
X19438Y25916D02*
X19884Y26362D01*
X20162Y26084D01*
X15916Y25638D02*
X16362Y26084D01*
X15638Y25916D02*
X15916Y25638D01*
X15638Y25916D02*
X16084Y26362D01*
X16362Y26084D01*
X8316Y25638D02*
X8762Y26084D01*
X8038Y25916D02*
X8316Y25638D01*
X8038Y25916D02*
X8484Y26362D01*
X8762Y26084D01*
X23516Y25638D02*
X23962Y26084D01*
X23238Y25916D02*
X23516Y25638D01*
X23238Y25916D02*
X23684Y26362D01*
X23962Y26084D01*
X12116Y25638D02*
X12562Y26084D01*
X11838Y25916D02*
X12116Y25638D01*
X11838Y25916D02*
X12284Y26362D01*
X12562Y26084D01*
X17816Y25638D02*
X18262Y26084D01*
X17538Y25916D02*
X17816Y25638D01*
X17538Y25916D02*
X17984Y26362D01*
X18262Y26084D01*
X2616Y25638D02*
X3062Y26084D01*
X2338Y25916D02*
X2616Y25638D01*
X2338Y25916D02*
X2784Y26362D01*
X3062Y26084D01*
X29216Y25638D02*
X29662Y26084D01*
X28938Y25916D02*
X29216Y25638D01*
X28938Y25916D02*
X29384Y26362D01*
X29662Y26084D01*
X10216Y25638D02*
X10662Y26084D01*
X9938Y25916D02*
X10216Y25638D01*
X9938Y25916D02*
X10384Y26362D01*
X10662Y26084D01*
X4516Y25638D02*
X4962Y26084D01*
X4238Y25916D02*
X4516Y25638D01*
X4238Y25916D02*
X4684Y26362D01*
X4962Y26084D01*
X31116Y25638D02*
X31562Y26084D01*
X30838Y25916D02*
X31116Y25638D01*
X30838Y25916D02*
X31284Y26362D01*
X31562Y26084D01*
X14016Y25638D02*
X14462Y26084D01*
X13738Y25916D02*
X14016Y25638D01*
X13738Y25916D02*
X14184Y26362D01*
X14462Y26084D01*
X27316Y25638D02*
X27762Y26084D01*
X27038Y25916D02*
X27316Y25638D01*
X27038Y25916D02*
X27484Y26362D01*
X27762Y26084D01*
X21616Y25638D02*
X22062Y26084D01*
X21338Y25916D02*
X21616Y25638D01*
X21338Y25916D02*
X21784Y26362D01*
X22062Y26084D01*
X6416Y25638D02*
X6862Y26084D01*
X6138Y25916D02*
X6416Y25638D01*
X6138Y25916D02*
X6584Y26362D01*
X6862Y26084D01*
X8316Y27538D02*
X8762Y27984D01*
X8038Y27816D02*
X8316Y27538D01*
X8038Y27816D02*
X8484Y28262D01*
X8762Y27984D01*
X27316Y27538D02*
X27762Y27984D01*
X27038Y27816D02*
X27316Y27538D01*
X27038Y27816D02*
X27484Y28262D01*
X27762Y27984D01*
X14025Y27547D02*
X14471Y27992D01*
X13747Y27825D02*
X14025Y27547D01*
X13747Y27825D02*
X14192Y28271D01*
X14471Y27992D01*
X2616Y27538D02*
X3062Y27984D01*
X2338Y27816D02*
X2616Y27538D01*
X2338Y27816D02*
X2784Y28262D01*
X3062Y27984D01*
X25416Y27538D02*
X25862Y27984D01*
X25138Y27816D02*
X25416Y27538D01*
X25138Y27816D02*
X25584Y28262D01*
X25862Y27984D01*
X23516Y27538D02*
X23962Y27984D01*
X23238Y27816D02*
X23516Y27538D01*
X23238Y27816D02*
X23684Y28262D01*
X23962Y27984D01*
X12116Y27538D02*
X12562Y27984D01*
X11838Y27816D02*
X12116Y27538D01*
X11838Y27816D02*
X12284Y28262D01*
X12562Y27984D01*
X6416Y27538D02*
X6862Y27984D01*
X6138Y27816D02*
X6416Y27538D01*
X6138Y27816D02*
X6584Y28262D01*
X6862Y27984D01*
X19716Y27538D02*
X20162Y27984D01*
X19438Y27816D02*
X19716Y27538D01*
X19438Y27816D02*
X19884Y28262D01*
X20162Y27984D01*
X31116Y27538D02*
X31562Y27984D01*
X30838Y27816D02*
X31116Y27538D01*
X30838Y27816D02*
X31284Y28262D01*
X31562Y27984D01*
X21616Y27538D02*
X22062Y27984D01*
X21338Y27816D02*
X21616Y27538D01*
X21338Y27816D02*
X21784Y28262D01*
X22062Y27984D01*
X10216Y27538D02*
X10662Y27984D01*
X9938Y27816D02*
X10216Y27538D01*
X9938Y27816D02*
X10384Y28262D01*
X10662Y27984D01*
X15925Y27547D02*
X16371Y27992D01*
X15647Y27825D02*
X15925Y27547D01*
X15647Y27825D02*
X16092Y28271D01*
X16371Y27992D01*
X17816Y27538D02*
X18262Y27984D01*
X17538Y27816D02*
X17816Y27538D01*
X17538Y27816D02*
X17984Y28262D01*
X18262Y27984D01*
X29216Y27538D02*
X29662Y27984D01*
X28938Y27816D02*
X29216Y27538D01*
X28938Y27816D02*
X29384Y28262D01*
X29662Y27984D01*
X4516Y27538D02*
X4962Y27984D01*
X4238Y27816D02*
X4516Y27538D01*
X4238Y27816D02*
X4684Y28262D01*
X4962Y27984D01*
X10208Y29429D02*
X10653Y29875D01*
X9929Y29708D02*
X10208Y29429D01*
X9929Y29708D02*
X10375Y30153D01*
X10653Y29875D01*
X12116Y29438D02*
X12562Y29884D01*
X11838Y29716D02*
X12116Y29438D01*
X11838Y29716D02*
X12284Y30162D01*
X12562Y29884D01*
X19716Y29438D02*
X20162Y29884D01*
X19438Y29716D02*
X19716Y29438D01*
X19438Y29716D02*
X19884Y30162D01*
X20162Y29884D01*
X27316Y29438D02*
X27762Y29884D01*
X27038Y29716D02*
X27316Y29438D01*
X27038Y29716D02*
X27484Y30162D01*
X27762Y29884D01*
X6416Y29438D02*
X6862Y29884D01*
X6138Y29716D02*
X6416Y29438D01*
X6138Y29716D02*
X6584Y30162D01*
X6862Y29884D01*
X29216Y29438D02*
X29662Y29884D01*
X28938Y29716D02*
X29216Y29438D01*
X28938Y29716D02*
X29384Y30162D01*
X29662Y29884D01*
X2616Y29438D02*
X3062Y29884D01*
X2338Y29716D02*
X2616Y29438D01*
X2338Y29716D02*
X2784Y30162D01*
X3062Y29884D01*
X31116Y29438D02*
X31562Y29884D01*
X30838Y29716D02*
X31116Y29438D01*
X30838Y29716D02*
X31284Y30162D01*
X31562Y29884D01*
X21616Y29438D02*
X22062Y29884D01*
X21338Y29716D02*
X21616Y29438D01*
X21338Y29716D02*
X21784Y30162D01*
X22062Y29884D01*
X8316Y29438D02*
X8762Y29884D01*
X8038Y29716D02*
X8316Y29438D01*
X8038Y29716D02*
X8484Y30162D01*
X8762Y29884D01*
X23516Y29438D02*
X23962Y29884D01*
X23238Y29716D02*
X23516Y29438D01*
X23238Y29716D02*
X23684Y30162D01*
X23962Y29884D01*
X25416Y29438D02*
X25862Y29884D01*
X25138Y29716D02*
X25416Y29438D01*
X25138Y29716D02*
X25584Y30162D01*
X25862Y29884D01*
X15916Y29438D02*
X16362Y29884D01*
X15638Y29716D02*
X15916Y29438D01*
X15638Y29716D02*
X16084Y30162D01*
X16362Y29884D01*
X4516Y29438D02*
X4962Y29884D01*
X4238Y29716D02*
X4516Y29438D01*
X4238Y29716D02*
X4684Y30162D01*
X4962Y29884D01*
X17816Y29438D02*
X18262Y29884D01*
X17538Y29716D02*
X17816Y29438D01*
X17538Y29716D02*
X17984Y30162D01*
X18262Y29884D01*
X14016Y29438D02*
X14462Y29884D01*
X13738Y29716D02*
X14016Y29438D01*
X13738Y29716D02*
X14184Y30162D01*
X14462Y29884D01*
X4516Y33238D02*
X4962Y33684D01*
X4238Y33516D02*
X4516Y33238D01*
X4238Y33516D02*
X4684Y33962D01*
X4962Y33684D01*
X6416Y33238D02*
X6862Y33684D01*
X6138Y33516D02*
X6416Y33238D01*
X6138Y33516D02*
X6584Y33962D01*
X6862Y33684D01*
X2616Y33238D02*
X3062Y33684D01*
X2338Y33516D02*
X2616Y33238D01*
X2338Y33516D02*
X2784Y33962D01*
X3062Y33684D01*
X21625Y33247D02*
X22071Y33692D01*
X21347Y33525D02*
X21625Y33247D01*
X21347Y33525D02*
X21792Y33971D01*
X22071Y33692D01*
X31108Y33229D02*
X31553Y33675D01*
X30829Y33508D02*
X31108Y33229D01*
X30829Y33508D02*
X31275Y33953D01*
X31553Y33675D01*
X25425Y33247D02*
X25871Y33692D01*
X25147Y33525D02*
X25425Y33247D01*
X25147Y33525D02*
X25592Y33971D01*
X25871Y33692D01*
X15925Y33247D02*
X16371Y33692D01*
X15647Y33525D02*
X15925Y33247D01*
X15647Y33525D02*
X16092Y33971D01*
X16371Y33692D01*
X12116Y33238D02*
X12562Y33684D01*
X11838Y33516D02*
X12116Y33238D01*
X11838Y33516D02*
X12284Y33962D01*
X12562Y33684D01*
X17825Y33247D02*
X18271Y33692D01*
X17547Y33525D02*
X17825Y33247D01*
X17547Y33525D02*
X17992Y33971D01*
X18271Y33692D01*
X8316Y33238D02*
X8762Y33684D01*
X8038Y33516D02*
X8316Y33238D01*
X8038Y33516D02*
X8484Y33962D01*
X8762Y33684D01*
X23525Y33247D02*
X23971Y33692D01*
X23247Y33525D02*
X23525Y33247D01*
X23247Y33525D02*
X23692Y33971D01*
X23971Y33692D01*
X14025Y33247D02*
X14471Y33692D01*
X13747Y33525D02*
X14025Y33247D01*
X13747Y33525D02*
X14192Y33971D01*
X14471Y33692D01*
X19716Y33238D02*
X20162Y33684D01*
X19438Y33516D02*
X19716Y33238D01*
X19438Y33516D02*
X19884Y33962D01*
X20162Y33684D01*
X10216Y33238D02*
X10662Y33684D01*
X9938Y33516D02*
X10216Y33238D01*
X9938Y33516D02*
X10384Y33962D01*
X10662Y33684D01*
X29216Y33238D02*
X29662Y33684D01*
X28938Y33516D02*
X29216Y33238D01*
X28938Y33516D02*
X29384Y33962D01*
X29662Y33684D01*
X27325Y33247D02*
X27771Y33692D01*
X27047Y33525D02*
X27325Y33247D01*
X27047Y33525D02*
X27492Y33971D01*
X27771Y33692D01*
X15916Y14238D02*
X16362Y14684D01*
X15638Y14516D02*
X15916Y14238D01*
X15638Y14516D02*
X16084Y14962D01*
X16362Y14684D01*
D13*
X46502Y7302D02*
X47698D01*
X46502D02*
Y13498D01*
X47698D01*
Y7302D02*
Y13498D01*
X46502Y402D02*
X47698D01*
X46502D02*
Y5598D01*
X47698D01*
Y402D02*
Y5598D01*
X46502Y15002D02*
X47698D01*
X46502D02*
Y21198D01*
X47698D01*
Y15002D02*
Y21198D01*
X36397Y20819D02*
X41082D01*
Y14481D02*
Y20819D01*
X36397Y14481D02*
X41082D01*
X36397D02*
Y20819D01*
X40591Y29960D02*
Y32440D01*
X42009D01*
Y29960D02*
Y32440D01*
X40591Y29960D02*
X42009D01*
X33643Y30483D02*
X36557D01*
Y28317D02*
Y30483D01*
X33643Y28317D02*
X36557D01*
X33643D02*
Y30483D01*
X37500Y27891D02*
Y34259D01*
X38700D01*
Y27891D02*
Y34259D01*
X37500Y27891D02*
X38700D01*
X45221Y30374D02*
X46579D01*
Y29626D02*
Y30374D01*
X45221Y29626D02*
X46579D01*
X45221D02*
Y30374D01*
X42906Y32170D02*
X44094D01*
Y31430D02*
Y32170D01*
X42906Y31430D02*
X44094D01*
X42906D02*
Y32170D01*
X39100Y27891D02*
Y34259D01*
X40300D01*
Y27891D02*
Y34259D01*
X39100Y27891D02*
X40300D01*
X33643Y33683D02*
X36557D01*
Y31517D02*
Y33683D01*
X33643Y31517D02*
X36557D01*
X33643D02*
Y33683D01*
X45121Y32174D02*
X46479D01*
Y31426D02*
Y32174D01*
X45121Y31426D02*
X46479D01*
X45121D02*
Y32174D01*
X43006Y30370D02*
X44194D01*
Y29630D02*
Y30370D01*
X43006Y29630D02*
X44194D01*
X43006D02*
Y30370D01*
X45142Y24497D02*
X46658D01*
Y23103D02*
Y24497D01*
X45142Y23103D02*
X46658D01*
X45142D02*
Y24497D01*
X43906Y26670D02*
X45094D01*
Y25930D02*
Y26670D01*
X43906Y25930D02*
X45094D01*
X43906D02*
Y26670D01*
X40394Y26694D02*
X41693D01*
Y25906D02*
Y26694D01*
X40394Y25906D02*
X41693D01*
X40394D02*
Y26694D01*
X38658D02*
X39957D01*
Y25906D02*
Y26694D01*
X38658Y25906D02*
X39957D01*
X38658D02*
Y26694D01*
X36922D02*
X38222D01*
Y25906D02*
Y26694D01*
X36922Y25906D02*
X38222D01*
X36922D02*
Y26694D01*
X35186D02*
X36486D01*
Y25906D02*
Y26694D01*
X35186Y25906D02*
X36486D01*
X35186D02*
Y26694D01*
X33450D02*
X34750D01*
Y25906D02*
Y26694D01*
X33450Y25906D02*
X34750D01*
X33450D02*
Y26694D01*
X42130D02*
X43488D01*
Y25906D02*
Y26694D01*
X42130Y25906D02*
X43488D01*
X42130D02*
Y26694D01*
X42573Y24499D02*
X44227D01*
Y23101D02*
Y24499D01*
X42573Y23101D02*
X44227D01*
X42573D02*
Y24499D01*
X38933Y24883D02*
X41867D01*
Y22717D02*
Y24883D01*
X38933Y22717D02*
X41867D01*
X38933D02*
Y24883D01*
X35333D02*
X38267D01*
Y22717D02*
Y24883D01*
X35333Y22717D02*
X38267D01*
X35333D02*
Y24883D01*
X36418Y11169D02*
X41103D01*
Y4831D02*
Y11169D01*
X36418Y4831D02*
X41103D01*
X36418D02*
Y11169D01*
D50*
X47020Y7820D02*
Y7980D01*
X47180D01*
Y7820D01*
X47020D01*
Y8820D02*
Y8980D01*
X47180D01*
Y8820D01*
X47020D01*
Y9820D02*
Y9980D01*
X47180D01*
Y9820D01*
X47020D01*
Y10820D02*
Y10980D01*
X47180D01*
Y10820D01*
X47020D01*
Y11820D02*
Y11980D01*
X47180D01*
Y11820D01*
X47020D01*
Y12820D02*
Y12980D01*
X47180D01*
Y12820D01*
X47020D01*
Y15520D02*
Y15680D01*
X47180D01*
Y15520D01*
X47020D01*
Y16520D02*
Y16680D01*
X47180D01*
Y16520D01*
X47020D01*
Y17520D02*
Y17680D01*
X47180D01*
Y17520D01*
X47020D01*
Y18520D02*
Y18680D01*
X47180D01*
Y18520D01*
X47020D01*
Y19520D02*
Y19680D01*
X47180D01*
Y19520D01*
X47020D01*
Y20520D02*
Y20680D01*
X47180D01*
Y20520D01*
X47020D01*
X38100Y28220D02*
X38020Y28380D01*
X38180D01*
X38100Y28220D01*
Y33771D02*
X38020Y33931D01*
X38180D01*
X38100Y33771D01*
X39700Y28220D02*
X39620Y28380D01*
X39780D01*
X39700Y28220D01*
Y33771D02*
X39620Y33931D01*
X39780D01*
X39700Y33771D01*
X33000Y25720D02*
X33040Y25760D01*
X33080D01*
X33040Y25800D01*
X33080Y25840D01*
X33040D01*
X33000Y25880D01*
X32960Y25840D01*
X32920D01*
X32960Y25800D01*
X32920Y25760D01*
X32960D01*
X33000Y25720D01*
Y24720D02*
X33040Y24760D01*
X33080D01*
X33040Y24800D01*
X33080Y24840D01*
X33040D01*
X33000Y24880D01*
X32960Y24840D01*
X32920D01*
X32960Y24800D01*
X32920Y24760D01*
X32960D01*
X33000Y24720D01*
X33500Y32520D02*
X33540Y32560D01*
X33580D01*
X33540Y32600D01*
X33580Y32640D01*
X33540D01*
X33500Y32680D01*
X33460Y32640D01*
X33420D01*
X33460Y32600D01*
X33420Y32560D01*
X33460D01*
X33500Y32520D01*
X46900Y24020D02*
X46940Y24060D01*
X46980D01*
X46940Y24100D01*
X46980Y24140D01*
X46940D01*
X46900Y24180D01*
X46860Y24140D01*
X46820D01*
X46860Y24100D01*
X46820Y24060D01*
X46860D01*
X46900Y24020D01*
X41391Y15311D02*
X41431Y15351D01*
X41471D01*
X41431Y15391D01*
X41471Y15431D01*
X41431D01*
X41391Y15471D01*
X41351Y15431D01*
X41311D01*
X41351Y15391D01*
X41311Y15351D01*
X41351D01*
X41391Y15311D01*
X41400Y15820D02*
X41440Y15860D01*
X41480D01*
X41440Y15900D01*
X41480Y15940D01*
X41440D01*
X41400Y15980D01*
X41360Y15940D01*
X41320D01*
X41360Y15900D01*
X41320Y15860D01*
X41360D01*
X41400Y15820D01*
X35500Y14820D02*
X35540Y14860D01*
X35580D01*
X35540Y14900D01*
X35580Y14940D01*
X35540D01*
X35500Y14980D01*
X35460Y14940D01*
X35420D01*
X35460Y14900D01*
X35420Y14860D01*
X35460D01*
X35500Y14820D01*
X35900Y15820D02*
X35940Y15860D01*
X35980D01*
X35940Y15900D01*
X35980Y15940D01*
X35940D01*
X35900Y15980D01*
X35860Y15940D01*
X35820D01*
X35860Y15900D01*
X35820Y15860D01*
X35860D01*
X35900Y15820D01*
X35875Y15320D02*
X35915Y15360D01*
X35955D01*
X35915Y15400D01*
X35955Y15440D01*
X35915D01*
X35875Y15480D01*
X35835Y15440D01*
X35795D01*
X35835Y15400D01*
X35795Y15360D01*
X35835D01*
X35875Y15320D01*
Y10720D02*
X35915Y10760D01*
X35955D01*
X35915Y10800D01*
X35955Y10840D01*
X35915D01*
X35875Y10880D01*
X35835Y10840D01*
X35795D01*
X35835Y10800D01*
X35795Y10760D01*
X35835D01*
X35875Y10720D01*
X36100Y19820D02*
X36140Y19860D01*
X36180D01*
X36140Y19900D01*
X36180Y19940D01*
X36140D01*
X36100Y19980D01*
X36060Y19940D01*
X36020D01*
X36060Y19900D01*
X36020Y19860D01*
X36060D01*
X36100Y19820D01*
X39800Y13120D02*
X39840Y13160D01*
X39880D01*
X39840Y13200D01*
X39880Y13240D01*
X39840D01*
X39800Y13280D01*
X39760Y13240D01*
X39720D01*
X39760Y13200D01*
X39720Y13160D01*
X39760D01*
X39800Y13120D01*
X39300Y13620D02*
X39340Y13660D01*
X39380D01*
X39340Y13700D01*
X39380Y13740D01*
X39340D01*
X39300Y13780D01*
X39260Y13740D01*
X39220D01*
X39260Y13700D01*
X39220Y13660D01*
X39260D01*
X39300Y13620D01*
X41600Y30920D02*
X41640Y30960D01*
X41680D01*
X41640Y31000D01*
X41680Y31040D01*
X41640D01*
X41600Y31080D01*
X41560Y31040D01*
X41520D01*
X41560Y31000D01*
X41520Y30960D01*
X41560D01*
X41600Y30920D01*
X40486Y32534D02*
X40526Y32574D01*
X40566D01*
X40526Y32614D01*
X40566Y32654D01*
X40526D01*
X40486Y32694D01*
X40446Y32654D01*
X40406D01*
X40446Y32614D01*
X40406Y32574D01*
X40446D01*
X40486Y32534D01*
X41700Y29620D02*
X41740Y29660D01*
X41780D01*
X41740Y29700D01*
X41780Y29740D01*
X41740D01*
X41700Y29780D01*
X41660Y29740D01*
X41620D01*
X41660Y29700D01*
X41620Y29660D01*
X41660D01*
X41700Y29620D01*
X42681Y29820D02*
X42721Y29860D01*
X42761D01*
X42721Y29900D01*
X42761Y29940D01*
X42721D01*
X42681Y29980D01*
X42641Y29940D01*
X42601D01*
X42641Y29900D01*
X42601Y29860D01*
X42641D01*
X42681Y29820D01*
X36700Y23420D02*
X36740Y23460D01*
X36780D01*
X36740Y23500D01*
X36780Y23540D01*
X36740D01*
X36700Y23580D01*
X36660Y23540D01*
X36620D01*
X36660Y23500D01*
X36620Y23460D01*
X36660D01*
X36700Y23420D01*
X44900D02*
X44940Y23460D01*
X44980D01*
X44940Y23500D01*
X44980Y23540D01*
X44940D01*
X44900Y23580D01*
X44860Y23540D01*
X44820D01*
X44860Y23500D01*
X44820Y23460D01*
X44860D01*
X44900Y23420D01*
X44491Y24229D02*
X44531Y24269D01*
X44571D01*
X44531Y24309D01*
X44571Y24349D01*
X44531D01*
X44491Y24389D01*
X44451Y24349D01*
X44411D01*
X44451Y24309D01*
X44411Y24269D01*
X44451D01*
X44491Y24229D01*
X44400Y23120D02*
X44440Y23160D01*
X44480D01*
X44440Y23200D01*
X44480Y23240D01*
X44440D01*
X44400Y23280D01*
X44360Y23240D01*
X44320D01*
X44360Y23200D01*
X44320Y23160D01*
X44360D01*
X44400Y23120D01*
X40800Y24420D02*
X40840Y24460D01*
X40880D01*
X40840Y24500D01*
X40880Y24540D01*
X40840D01*
X40800Y24580D01*
X40760Y24540D01*
X40720D01*
X40760Y24500D01*
X40720Y24460D01*
X40760D01*
X40800Y24420D01*
X38500Y23720D02*
X38540Y23760D01*
X38580D01*
X38540Y23800D01*
X38580Y23840D01*
X38540D01*
X38500Y23880D01*
X38460Y23840D01*
X38420D01*
X38460Y23800D01*
X38420Y23760D01*
X38460D01*
X38500Y23720D01*
X42400Y24120D02*
X42440Y24160D01*
X42480D01*
X42440Y24200D01*
X42480Y24240D01*
X42440D01*
X42400Y24280D01*
X42360Y24240D01*
X42320D01*
X42360Y24200D01*
X42320Y24160D01*
X42360D01*
X42400Y24120D01*
X37200Y24420D02*
X37240Y24460D01*
X37280D01*
X37240Y24500D01*
X37280Y24540D01*
X37240D01*
X37200Y24580D01*
X37160Y24540D01*
X37120D01*
X37160Y24500D01*
X37120Y24460D01*
X37160D01*
X37200Y24420D01*
X33000Y18720D02*
X33040Y18760D01*
X33080D01*
X33040Y18800D01*
X33080Y18840D01*
X33040D01*
X33000Y18880D01*
X32960Y18840D01*
X32920D01*
X32960Y18800D01*
X32920Y18760D01*
X32960D01*
X33000Y18720D01*
X35100Y23920D02*
X35140Y23960D01*
X35180D01*
X35140Y24000D01*
X35180Y24040D01*
X35140D01*
X35100Y24080D01*
X35060Y24040D01*
X35020D01*
X35060Y24000D01*
X35020Y23960D01*
X35060D01*
X35100Y23920D01*
X39600Y20320D02*
X39640Y20360D01*
X39680D01*
X39640Y20400D01*
X39680Y20440D01*
X39640D01*
X39600Y20480D01*
X39560Y20440D01*
X39520D01*
X39560Y20400D01*
X39520Y20360D01*
X39560D01*
X39600Y20320D01*
X33000Y25220D02*
X33040Y25260D01*
X33080D01*
X33040Y25300D01*
X33080Y25340D01*
X33040D01*
X33000Y25380D01*
X32960Y25340D01*
X32920D01*
X32960Y25300D01*
X32920Y25260D01*
X32960D01*
X33000Y25220D01*
Y23720D02*
X33040Y23760D01*
X33080D01*
X33040Y23800D01*
X33080Y23840D01*
X33040D01*
X33000Y23880D01*
X32960Y23840D01*
X32920D01*
X32960Y23800D01*
X32920Y23760D01*
X32960D01*
X33000Y23720D01*
Y24220D02*
X33040Y24260D01*
X33080D01*
X33040Y24300D01*
X33080Y24340D01*
X33040D01*
X33000Y24380D01*
X32960Y24340D01*
X32920D01*
X32960Y24300D01*
X32920Y24260D01*
X32960D01*
X33000Y24220D01*
Y21720D02*
X33040Y21760D01*
X33080D01*
X33040Y21800D01*
X33080Y21840D01*
X33040D01*
X33000Y21880D01*
X32960Y21840D01*
X32920D01*
X32960Y21800D01*
X32920Y21760D01*
X32960D01*
X33000Y21720D01*
Y21220D02*
X33040Y21260D01*
X33080D01*
X33040Y21300D01*
X33080Y21340D01*
X33040D01*
X33000Y21380D01*
X32960Y21340D01*
X32920D01*
X32960Y21300D01*
X32920Y21260D01*
X32960D01*
X33000Y21220D01*
Y23220D02*
X33040Y23260D01*
X33080D01*
X33040Y23300D01*
X33080Y23340D01*
X33040D01*
X33000Y23380D01*
X32960Y23340D01*
X32920D01*
X32960Y23300D01*
X32920Y23260D01*
X32960D01*
X33000Y23220D01*
Y20720D02*
X33040Y20760D01*
X33080D01*
X33040Y20800D01*
X33080Y20840D01*
X33040D01*
X33000Y20880D01*
X32960Y20840D01*
X32920D01*
X32960Y20800D01*
X32920Y20760D01*
X32960D01*
X33000Y20720D01*
Y20220D02*
X33040Y20260D01*
X33080D01*
X33040Y20300D01*
X33080Y20340D01*
X33040D01*
X33000Y20380D01*
X32960Y20340D01*
X32920D01*
X32960Y20300D01*
X32920Y20260D01*
X32960D01*
X33000Y20220D01*
Y19720D02*
X33040Y19760D01*
X33080D01*
X33040Y19800D01*
X33080Y19840D01*
X33040D01*
X33000Y19880D01*
X32960Y19840D01*
X32920D01*
X32960Y19800D01*
X32920Y19760D01*
X32960D01*
X33000Y19720D01*
Y19220D02*
X33040Y19260D01*
X33080D01*
X33040Y19300D01*
X33080Y19340D01*
X33040D01*
X33000Y19380D01*
X32960Y19340D01*
X32920D01*
X32960Y19300D01*
X32920Y19260D01*
X32960D01*
X33000Y19220D01*
X38400Y6720D02*
X38440Y6760D01*
X38480D01*
X38440Y6800D01*
X38480Y6840D01*
X38440D01*
X38400Y6880D01*
X38360Y6840D01*
X38320D01*
X38360Y6800D01*
X38320Y6760D01*
X38360D01*
X38400Y6720D01*
X37760Y5670D02*
X37800Y5710D01*
X37840D01*
X37800Y5750D01*
X37840Y5790D01*
X37800D01*
X37760Y5830D01*
X37720Y5790D01*
X37680D01*
X37720Y5750D01*
X37680Y5710D01*
X37720D01*
X37760Y5670D01*
X30709Y4411D02*
X30749Y4451D01*
X30789D01*
X30749Y4491D01*
X30789Y4531D01*
X30749D01*
X30709Y4571D01*
X30669Y4531D01*
X30629D01*
X30669Y4491D01*
X30629Y4451D01*
X30669D01*
X30709Y4411D01*
X30700Y6320D02*
X30740Y6360D01*
X30780D01*
X30740Y6400D01*
X30780Y6440D01*
X30740D01*
X30700Y6480D01*
X30660Y6440D01*
X30620D01*
X30660Y6400D01*
X30620Y6360D01*
X30660D01*
X30700Y6320D01*
X39660Y10570D02*
X39700Y10610D01*
X39740D01*
X39700Y10650D01*
X39740Y10690D01*
X39700D01*
X39660Y10730D01*
X39620Y10690D01*
X39580D01*
X39620Y10650D01*
X39580Y10610D01*
X39620D01*
X39660Y10570D01*
X37760Y6170D02*
X37800Y6210D01*
X37840D01*
X37800Y6250D01*
X37840Y6290D01*
X37800D01*
X37760Y6330D01*
X37720Y6290D01*
X37680D01*
X37720Y6250D01*
X37680Y6210D01*
X37720D01*
X37760Y6170D01*
X26800Y15820D02*
X26840Y15860D01*
X26880D01*
X26840Y15900D01*
X26880Y15940D01*
X26840D01*
X26800Y15980D01*
X26760Y15940D01*
X26720D01*
X26760Y15900D01*
X26720Y15860D01*
X26760D01*
X26800Y15820D01*
X28700Y32920D02*
X28740Y32960D01*
X28780D01*
X28740Y33000D01*
X28780Y33040D01*
X28740D01*
X28700Y33080D01*
X28660Y33040D01*
X28620D01*
X28660Y33000D01*
X28620Y32960D01*
X28660D01*
X28700Y32920D01*
X26800D02*
X26840Y32960D01*
X26880D01*
X26840Y33000D01*
X26880Y33040D01*
X26840D01*
X26800Y33080D01*
X26760Y33040D01*
X26720D01*
X26760Y33000D01*
X26720Y32960D01*
X26760D01*
X26800Y32920D01*
X24900D02*
X24940Y32960D01*
X24980D01*
X24940Y33000D01*
X24980Y33040D01*
X24940D01*
X24900Y33080D01*
X24860Y33040D01*
X24820D01*
X24860Y33000D01*
X24820Y32960D01*
X24860D01*
X24900Y32920D01*
X28700Y31020D02*
X28740Y31060D01*
X28780D01*
X28740Y31100D01*
X28780Y31140D01*
X28740D01*
X28700Y31180D01*
X28660Y31140D01*
X28620D01*
X28660Y31100D01*
X28620Y31060D01*
X28660D01*
X28700Y31020D01*
X26800D02*
X26840Y31060D01*
X26880D01*
X26840Y31100D01*
X26880Y31140D01*
X26840D01*
X26800Y31180D01*
X26760Y31140D01*
X26720D01*
X26760Y31100D01*
X26720Y31060D01*
X26760D01*
X26800Y31020D01*
X24900D02*
X24940Y31060D01*
X24980D01*
X24940Y31100D01*
X24980Y31140D01*
X24940D01*
X24900Y31180D01*
X24860Y31140D01*
X24820D01*
X24860Y31100D01*
X24820Y31060D01*
X24860D01*
X24900Y31020D01*
X28700Y29120D02*
X28740Y29160D01*
X28780D01*
X28740Y29200D01*
X28780Y29240D01*
X28740D01*
X28700Y29280D01*
X28660Y29240D01*
X28620D01*
X28660Y29200D01*
X28620Y29160D01*
X28660D01*
X28700Y29120D01*
X26800D02*
X26840Y29160D01*
X26880D01*
X26840Y29200D01*
X26880Y29240D01*
X26840D01*
X26800Y29280D01*
X26760Y29240D01*
X26720D01*
X26760Y29200D01*
X26720Y29160D01*
X26760D01*
X26800Y29120D01*
X24900D02*
X24940Y29160D01*
X24980D01*
X24940Y29200D01*
X24980Y29240D01*
X24940D01*
X24900Y29280D01*
X24860Y29240D01*
X24820D01*
X24860Y29200D01*
X24820Y29160D01*
X24860D01*
X24900Y29120D01*
X28700Y27220D02*
X28740Y27260D01*
X28780D01*
X28740Y27300D01*
X28780Y27340D01*
X28740D01*
X28700Y27380D01*
X28660Y27340D01*
X28620D01*
X28660Y27300D01*
X28620Y27260D01*
X28660D01*
X28700Y27220D01*
X26800D02*
X26840Y27260D01*
X26880D01*
X26840Y27300D01*
X26880Y27340D01*
X26840D01*
X26800Y27380D01*
X26760Y27340D01*
X26720D01*
X26760Y27300D01*
X26720Y27260D01*
X26760D01*
X26800Y27220D01*
X24900D02*
X24940Y27260D01*
X24980D01*
X24940Y27300D01*
X24980Y27340D01*
X24940D01*
X24900Y27380D01*
X24860Y27340D01*
X24820D01*
X24860Y27300D01*
X24820Y27260D01*
X24860D01*
X24900Y27220D01*
X28700Y25320D02*
X28740Y25360D01*
X28780D01*
X28740Y25400D01*
X28780Y25440D01*
X28740D01*
X28700Y25480D01*
X28660Y25440D01*
X28620D01*
X28660Y25400D01*
X28620Y25360D01*
X28660D01*
X28700Y25320D01*
X26800D02*
X26840Y25360D01*
X26880D01*
X26840Y25400D01*
X26880Y25440D01*
X26840D01*
X26800Y25480D01*
X26760Y25440D01*
X26720D01*
X26760Y25400D01*
X26720Y25360D01*
X26760D01*
X26800Y25320D01*
X24900D02*
X24940Y25360D01*
X24980D01*
X24940Y25400D01*
X24980Y25440D01*
X24940D01*
X24900Y25480D01*
X24860Y25440D01*
X24820D01*
X24860Y25400D01*
X24820Y25360D01*
X24860D01*
X24900Y25320D01*
X28700Y23420D02*
X28740Y23460D01*
X28780D01*
X28740Y23500D01*
X28780Y23540D01*
X28740D01*
X28700Y23580D01*
X28660Y23540D01*
X28620D01*
X28660Y23500D01*
X28620Y23460D01*
X28660D01*
X28700Y23420D01*
X26800D02*
X26840Y23460D01*
X26880D01*
X26840Y23500D01*
X26880Y23540D01*
X26840D01*
X26800Y23580D01*
X26760Y23540D01*
X26720D01*
X26760Y23500D01*
X26720Y23460D01*
X26760D01*
X26800Y23420D01*
X24900D02*
X24940Y23460D01*
X24980D01*
X24940Y23500D01*
X24980Y23540D01*
X24940D01*
X24900Y23580D01*
X24860Y23540D01*
X24820D01*
X24860Y23500D01*
X24820Y23460D01*
X24860D01*
X24900Y23420D01*
X28700Y21520D02*
X28740Y21560D01*
X28780D01*
X28740Y21600D01*
X28780Y21640D01*
X28740D01*
X28700Y21680D01*
X28660Y21640D01*
X28620D01*
X28660Y21600D01*
X28620Y21560D01*
X28660D01*
X28700Y21520D01*
X26800D02*
X26840Y21560D01*
X26880D01*
X26840Y21600D01*
X26880Y21640D01*
X26840D01*
X26800Y21680D01*
X26760Y21640D01*
X26720D01*
X26760Y21600D01*
X26720Y21560D01*
X26760D01*
X26800Y21520D01*
X24900D02*
X24940Y21560D01*
X24980D01*
X24940Y21600D01*
X24980Y21640D01*
X24940D01*
X24900Y21680D01*
X24860Y21640D01*
X24820D01*
X24860Y21600D01*
X24820Y21560D01*
X24860D01*
X24900Y21520D01*
X28700Y19620D02*
X28740Y19660D01*
X28780D01*
X28740Y19700D01*
X28780Y19740D01*
X28740D01*
X28700Y19780D01*
X28660Y19740D01*
X28620D01*
X28660Y19700D01*
X28620Y19660D01*
X28660D01*
X28700Y19620D01*
X26800D02*
X26840Y19660D01*
X26880D01*
X26840Y19700D01*
X26880Y19740D01*
X26840D01*
X26800Y19780D01*
X26760Y19740D01*
X26720D01*
X26760Y19700D01*
X26720Y19660D01*
X26760D01*
X26800Y19620D01*
X24900D02*
X24940Y19660D01*
X24980D01*
X24940Y19700D01*
X24980Y19740D01*
X24940D01*
X24900Y19780D01*
X24860Y19740D01*
X24820D01*
X24860Y19700D01*
X24820Y19660D01*
X24860D01*
X24900Y19620D01*
X28700Y17720D02*
X28740Y17760D01*
X28780D01*
X28740Y17800D01*
X28780Y17840D01*
X28740D01*
X28700Y17880D01*
X28660Y17840D01*
X28620D01*
X28660Y17800D01*
X28620Y17760D01*
X28660D01*
X28700Y17720D01*
X26800D02*
X26840Y17760D01*
X26880D01*
X26840Y17800D01*
X26880Y17840D01*
X26840D01*
X26800Y17880D01*
X26760Y17840D01*
X26720D01*
X26760Y17800D01*
X26720Y17760D01*
X26760D01*
X26800Y17720D01*
X24900D02*
X24940Y17760D01*
X24980D01*
X24940Y17800D01*
X24980Y17840D01*
X24940D01*
X24900Y17880D01*
X24860Y17840D01*
X24820D01*
X24860Y17800D01*
X24820Y17760D01*
X24860D01*
X24900Y17720D01*
X28800Y15820D02*
X28840Y15860D01*
X28880D01*
X28840Y15900D01*
X28880Y15940D01*
X28840D01*
X28800Y15980D01*
X28760Y15940D01*
X28720D01*
X28760Y15900D01*
X28720Y15860D01*
X28760D01*
X28800Y15820D01*
X25000D02*
X25040Y15860D01*
X25080D01*
X25040Y15900D01*
X25080Y15940D01*
X25040D01*
X25000Y15980D01*
X24960Y15940D01*
X24920D01*
X24960Y15900D01*
X24920Y15860D01*
X24960D01*
X25000Y15820D01*
X28800Y13920D02*
X28840Y13960D01*
X28880D01*
X28840Y14000D01*
X28880Y14040D01*
X28840D01*
X28800Y14080D01*
X28760Y14040D01*
X28720D01*
X28760Y14000D01*
X28720Y13960D01*
X28760D01*
X28800Y13920D01*
X26900D02*
X26940Y13960D01*
X26980D01*
X26940Y14000D01*
X26980Y14040D01*
X26940D01*
X26900Y14080D01*
X26860Y14040D01*
X26820D01*
X26860Y14000D01*
X26820Y13960D01*
X26860D01*
X26900Y13920D01*
X25000D02*
X25040Y13960D01*
X25080D01*
X25040Y14000D01*
X25080Y14040D01*
X25040D01*
X25000Y14080D01*
X24960Y14040D01*
X24920D01*
X24960Y14000D01*
X24920Y13960D01*
X24960D01*
X25000Y13920D01*
X28800Y12020D02*
X28840Y12060D01*
X28880D01*
X28840Y12100D01*
X28880Y12140D01*
X28840D01*
X28800Y12180D01*
X28760Y12140D01*
X28720D01*
X28760Y12100D01*
X28720Y12060D01*
X28760D01*
X28800Y12020D01*
X26900D02*
X26940Y12060D01*
X26980D01*
X26940Y12100D01*
X26980Y12140D01*
X26940D01*
X26900Y12180D01*
X26860Y12140D01*
X26820D01*
X26860Y12100D01*
X26820Y12060D01*
X26860D01*
X26900Y12020D01*
X25000D02*
X25040Y12060D01*
X25080D01*
X25040Y12100D01*
X25080Y12140D01*
X25040D01*
X25000Y12180D01*
X24960Y12140D01*
X24920D01*
X24960Y12100D01*
X24920Y12060D01*
X24960D01*
X25000Y12020D01*
X28800Y10120D02*
X28840Y10160D01*
X28880D01*
X28840Y10200D01*
X28880Y10240D01*
X28840D01*
X28800Y10280D01*
X28760Y10240D01*
X28720D01*
X28760Y10200D01*
X28720Y10160D01*
X28760D01*
X28800Y10120D01*
X26900D02*
X26940Y10160D01*
X26980D01*
X26940Y10200D01*
X26980Y10240D01*
X26940D01*
X26900Y10280D01*
X26860Y10240D01*
X26820D01*
X26860Y10200D01*
X26820Y10160D01*
X26860D01*
X26900Y10120D01*
X25000D02*
X25040Y10160D01*
X25080D01*
X25040Y10200D01*
X25080Y10240D01*
X25040D01*
X25000Y10280D01*
X24960Y10240D01*
X24920D01*
X24960Y10200D01*
X24920Y10160D01*
X24960D01*
X25000Y10120D01*
X28800Y8220D02*
X28840Y8260D01*
X28880D01*
X28840Y8300D01*
X28880Y8340D01*
X28840D01*
X28800Y8380D01*
X28760Y8340D01*
X28720D01*
X28760Y8300D01*
X28720Y8260D01*
X28760D01*
X28800Y8220D01*
X26900D02*
X26940Y8260D01*
X26980D01*
X26940Y8300D01*
X26980Y8340D01*
X26940D01*
X26900Y8380D01*
X26860Y8340D01*
X26820D01*
X26860Y8300D01*
X26820Y8260D01*
X26860D01*
X26900Y8220D01*
X25000D02*
X25040Y8260D01*
X25080D01*
X25040Y8300D01*
X25080Y8340D01*
X25040D01*
X25000Y8380D01*
X24960Y8340D01*
X24920D01*
X24960Y8300D01*
X24920Y8260D01*
X24960D01*
X25000Y8220D01*
X28800Y6320D02*
X28840Y6360D01*
X28880D01*
X28840Y6400D01*
X28880Y6440D01*
X28840D01*
X28800Y6480D01*
X28760Y6440D01*
X28720D01*
X28760Y6400D01*
X28720Y6360D01*
X28760D01*
X28800Y6320D01*
X26900D02*
X26940Y6360D01*
X26980D01*
X26940Y6400D01*
X26980Y6440D01*
X26940D01*
X26900Y6480D01*
X26860Y6440D01*
X26820D01*
X26860Y6400D01*
X26820Y6360D01*
X26860D01*
X26900Y6320D01*
X25000D02*
X25040Y6360D01*
X25080D01*
X25040Y6400D01*
X25080Y6440D01*
X25040D01*
X25000Y6480D01*
X24960Y6440D01*
X24920D01*
X24960Y6400D01*
X24920Y6360D01*
X24960D01*
X25000Y6320D01*
Y4420D02*
X25040Y4460D01*
X25080D01*
X25040Y4500D01*
X25080Y4540D01*
X25040D01*
X25000Y4580D01*
X24960Y4540D01*
X24920D01*
X24960Y4500D01*
X24920Y4460D01*
X24960D01*
X25000Y4420D01*
X26900D02*
X26940Y4460D01*
X26980D01*
X26940Y4500D01*
X26980Y4540D01*
X26940D01*
X26900Y4580D01*
X26860Y4540D01*
X26820D01*
X26860Y4500D01*
X26820Y4460D01*
X26860D01*
X26900Y4420D01*
X28800D02*
X28840Y4460D01*
X28880D01*
X28840Y4500D01*
X28880Y4540D01*
X28840D01*
X28800Y4580D01*
X28760Y4540D01*
X28720D01*
X28760Y4500D01*
X28720Y4460D01*
X28760D01*
X28800Y4420D01*
X21200D02*
X21240Y4460D01*
X21280D01*
X21240Y4500D01*
X21280Y4540D01*
X21240D01*
X21200Y4580D01*
X21160Y4540D01*
X21120D01*
X21160Y4500D01*
X21120Y4460D01*
X21160D01*
X21200Y4420D01*
X23100D02*
X23140Y4460D01*
X23180D01*
X23140Y4500D01*
X23180Y4540D01*
X23140D01*
X23100Y4580D01*
X23060Y4540D01*
X23020D01*
X23060Y4500D01*
X23020Y4460D01*
X23060D01*
X23100Y4420D01*
X9700D02*
X9740Y4460D01*
X9780D01*
X9740Y4500D01*
X9780Y4540D01*
X9740D01*
X9700Y4580D01*
X9660Y4540D01*
X9620D01*
X9660Y4500D01*
X9620Y4460D01*
X9660D01*
X9700Y4420D01*
X4000D02*
X4040Y4460D01*
X4080D01*
X4040Y4500D01*
X4080Y4540D01*
X4040D01*
X4000Y4580D01*
X3960Y4540D01*
X3920D01*
X3960Y4500D01*
X3920Y4460D01*
X3960D01*
X4000Y4420D01*
X19200D02*
X19240Y4460D01*
X19280D01*
X19240Y4500D01*
X19280Y4540D01*
X19240D01*
X19200Y4580D01*
X19160Y4540D01*
X19120D01*
X19160Y4500D01*
X19120Y4460D01*
X19160D01*
X19200Y4420D01*
X23100Y6320D02*
X23140Y6360D01*
X23180D01*
X23140Y6400D01*
X23180Y6440D01*
X23140D01*
X23100Y6480D01*
X23060Y6440D01*
X23020D01*
X23060Y6400D01*
X23020Y6360D01*
X23060D01*
X23100Y6320D01*
X21200D02*
X21240Y6360D01*
X21280D01*
X21240Y6400D01*
X21280Y6440D01*
X21240D01*
X21200Y6480D01*
X21160Y6440D01*
X21120D01*
X21160Y6400D01*
X21120Y6360D01*
X21160D01*
X21200Y6320D01*
X19200D02*
X19240Y6360D01*
X19280D01*
X19240Y6400D01*
X19280Y6440D01*
X19240D01*
X19200Y6480D01*
X19160Y6440D01*
X19120D01*
X19160Y6400D01*
X19120Y6360D01*
X19160D01*
X19200Y6320D01*
X17300D02*
X17340Y6360D01*
X17380D01*
X17340Y6400D01*
X17380Y6440D01*
X17340D01*
X17300Y6480D01*
X17260Y6440D01*
X17220D01*
X17260Y6400D01*
X17220Y6360D01*
X17260D01*
X17300Y6320D01*
X15400D02*
X15440Y6360D01*
X15480D01*
X15440Y6400D01*
X15480Y6440D01*
X15440D01*
X15400Y6480D01*
X15360Y6440D01*
X15320D01*
X15360Y6400D01*
X15320Y6360D01*
X15360D01*
X15400Y6320D01*
X13500D02*
X13540Y6360D01*
X13580D01*
X13540Y6400D01*
X13580Y6440D01*
X13540D01*
X13500Y6480D01*
X13460Y6440D01*
X13420D01*
X13460Y6400D01*
X13420Y6360D01*
X13460D01*
X13500Y6320D01*
X11600D02*
X11640Y6360D01*
X11680D01*
X11640Y6400D01*
X11680Y6440D01*
X11640D01*
X11600Y6480D01*
X11560Y6440D01*
X11520D01*
X11560Y6400D01*
X11520Y6360D01*
X11560D01*
X11600Y6320D01*
X9700D02*
X9740Y6360D01*
X9780D01*
X9740Y6400D01*
X9780Y6440D01*
X9740D01*
X9700Y6480D01*
X9660Y6440D01*
X9620D01*
X9660Y6400D01*
X9620Y6360D01*
X9660D01*
X9700Y6320D01*
X7800D02*
X7840Y6360D01*
X7880D01*
X7840Y6400D01*
X7880Y6440D01*
X7840D01*
X7800Y6480D01*
X7760Y6440D01*
X7720D01*
X7760Y6400D01*
X7720Y6360D01*
X7760D01*
X7800Y6320D01*
X5900D02*
X5940Y6360D01*
X5980D01*
X5940Y6400D01*
X5980Y6440D01*
X5940D01*
X5900Y6480D01*
X5860Y6440D01*
X5820D01*
X5860Y6400D01*
X5820Y6360D01*
X5860D01*
X5900Y6320D01*
X4000D02*
X4040Y6360D01*
X4080D01*
X4040Y6400D01*
X4080Y6440D01*
X4040D01*
X4000Y6480D01*
X3960Y6440D01*
X3920D01*
X3960Y6400D01*
X3920Y6360D01*
X3960D01*
X4000Y6320D01*
X30700Y8220D02*
X30740Y8260D01*
X30780D01*
X30740Y8300D01*
X30780Y8340D01*
X30740D01*
X30700Y8380D01*
X30660Y8340D01*
X30620D01*
X30660Y8300D01*
X30620Y8260D01*
X30660D01*
X30700Y8220D01*
X23100D02*
X23140Y8260D01*
X23180D01*
X23140Y8300D01*
X23180Y8340D01*
X23140D01*
X23100Y8380D01*
X23060Y8340D01*
X23020D01*
X23060Y8300D01*
X23020Y8260D01*
X23060D01*
X23100Y8220D01*
X21200D02*
X21240Y8260D01*
X21280D01*
X21240Y8300D01*
X21280Y8340D01*
X21240D01*
X21200Y8380D01*
X21160Y8340D01*
X21120D01*
X21160Y8300D01*
X21120Y8260D01*
X21160D01*
X21200Y8220D01*
X19200D02*
X19240Y8260D01*
X19280D01*
X19240Y8300D01*
X19280Y8340D01*
X19240D01*
X19200Y8380D01*
X19160Y8340D01*
X19120D01*
X19160Y8300D01*
X19120Y8260D01*
X19160D01*
X19200Y8220D01*
X17300D02*
X17340Y8260D01*
X17380D01*
X17340Y8300D01*
X17380Y8340D01*
X17340D01*
X17300Y8380D01*
X17260Y8340D01*
X17220D01*
X17260Y8300D01*
X17220Y8260D01*
X17260D01*
X17300Y8220D01*
X15400D02*
X15440Y8260D01*
X15480D01*
X15440Y8300D01*
X15480Y8340D01*
X15440D01*
X15400Y8380D01*
X15360Y8340D01*
X15320D01*
X15360Y8300D01*
X15320Y8260D01*
X15360D01*
X15400Y8220D01*
X13500D02*
X13540Y8260D01*
X13580D01*
X13540Y8300D01*
X13580Y8340D01*
X13540D01*
X13500Y8380D01*
X13460Y8340D01*
X13420D01*
X13460Y8300D01*
X13420Y8260D01*
X13460D01*
X13500Y8220D01*
X11600D02*
X11640Y8260D01*
X11680D01*
X11640Y8300D01*
X11680Y8340D01*
X11640D01*
X11600Y8380D01*
X11560Y8340D01*
X11520D01*
X11560Y8300D01*
X11520Y8260D01*
X11560D01*
X11600Y8220D01*
X9700D02*
X9740Y8260D01*
X9780D01*
X9740Y8300D01*
X9780Y8340D01*
X9740D01*
X9700Y8380D01*
X9660Y8340D01*
X9620D01*
X9660Y8300D01*
X9620Y8260D01*
X9660D01*
X9700Y8220D01*
X7800D02*
X7840Y8260D01*
X7880D01*
X7840Y8300D01*
X7880Y8340D01*
X7840D01*
X7800Y8380D01*
X7760Y8340D01*
X7720D01*
X7760Y8300D01*
X7720Y8260D01*
X7760D01*
X7800Y8220D01*
X5900D02*
X5940Y8260D01*
X5980D01*
X5940Y8300D01*
X5980Y8340D01*
X5940D01*
X5900Y8380D01*
X5860Y8340D01*
X5820D01*
X5860Y8300D01*
X5820Y8260D01*
X5860D01*
X5900Y8220D01*
X4000D02*
X4040Y8260D01*
X4080D01*
X4040Y8300D01*
X4080Y8340D01*
X4040D01*
X4000Y8380D01*
X3960Y8340D01*
X3920D01*
X3960Y8300D01*
X3920Y8260D01*
X3960D01*
X4000Y8220D01*
X30700Y10120D02*
X30740Y10160D01*
X30780D01*
X30740Y10200D01*
X30780Y10240D01*
X30740D01*
X30700Y10280D01*
X30660Y10240D01*
X30620D01*
X30660Y10200D01*
X30620Y10160D01*
X30660D01*
X30700Y10120D01*
X23100D02*
X23140Y10160D01*
X23180D01*
X23140Y10200D01*
X23180Y10240D01*
X23140D01*
X23100Y10280D01*
X23060Y10240D01*
X23020D01*
X23060Y10200D01*
X23020Y10160D01*
X23060D01*
X23100Y10120D01*
X21200D02*
X21240Y10160D01*
X21280D01*
X21240Y10200D01*
X21280Y10240D01*
X21240D01*
X21200Y10280D01*
X21160Y10240D01*
X21120D01*
X21160Y10200D01*
X21120Y10160D01*
X21160D01*
X21200Y10120D01*
X19200D02*
X19240Y10160D01*
X19280D01*
X19240Y10200D01*
X19280Y10240D01*
X19240D01*
X19200Y10280D01*
X19160Y10240D01*
X19120D01*
X19160Y10200D01*
X19120Y10160D01*
X19160D01*
X19200Y10120D01*
X17300D02*
X17340Y10160D01*
X17380D01*
X17340Y10200D01*
X17380Y10240D01*
X17340D01*
X17300Y10280D01*
X17260Y10240D01*
X17220D01*
X17260Y10200D01*
X17220Y10160D01*
X17260D01*
X17300Y10120D01*
X15400D02*
X15440Y10160D01*
X15480D01*
X15440Y10200D01*
X15480Y10240D01*
X15440D01*
X15400Y10280D01*
X15360Y10240D01*
X15320D01*
X15360Y10200D01*
X15320Y10160D01*
X15360D01*
X15400Y10120D01*
X13500D02*
X13540Y10160D01*
X13580D01*
X13540Y10200D01*
X13580Y10240D01*
X13540D01*
X13500Y10280D01*
X13460Y10240D01*
X13420D01*
X13460Y10200D01*
X13420Y10160D01*
X13460D01*
X13500Y10120D01*
X11600D02*
X11640Y10160D01*
X11680D01*
X11640Y10200D01*
X11680Y10240D01*
X11640D01*
X11600Y10280D01*
X11560Y10240D01*
X11520D01*
X11560Y10200D01*
X11520Y10160D01*
X11560D01*
X11600Y10120D01*
X9700D02*
X9740Y10160D01*
X9780D01*
X9740Y10200D01*
X9780Y10240D01*
X9740D01*
X9700Y10280D01*
X9660Y10240D01*
X9620D01*
X9660Y10200D01*
X9620Y10160D01*
X9660D01*
X9700Y10120D01*
X7800D02*
X7840Y10160D01*
X7880D01*
X7840Y10200D01*
X7880Y10240D01*
X7840D01*
X7800Y10280D01*
X7760Y10240D01*
X7720D01*
X7760Y10200D01*
X7720Y10160D01*
X7760D01*
X7800Y10120D01*
X5900D02*
X5940Y10160D01*
X5980D01*
X5940Y10200D01*
X5980Y10240D01*
X5940D01*
X5900Y10280D01*
X5860Y10240D01*
X5820D01*
X5860Y10200D01*
X5820Y10160D01*
X5860D01*
X5900Y10120D01*
X4000D02*
X4040Y10160D01*
X4080D01*
X4040Y10200D01*
X4080Y10240D01*
X4040D01*
X4000Y10280D01*
X3960Y10240D01*
X3920D01*
X3960Y10200D01*
X3920Y10160D01*
X3960D01*
X4000Y10120D01*
X30700Y12020D02*
X30740Y12060D01*
X30780D01*
X30740Y12100D01*
X30780Y12140D01*
X30740D01*
X30700Y12180D01*
X30660Y12140D01*
X30620D01*
X30660Y12100D01*
X30620Y12060D01*
X30660D01*
X30700Y12020D01*
X23100D02*
X23140Y12060D01*
X23180D01*
X23140Y12100D01*
X23180Y12140D01*
X23140D01*
X23100Y12180D01*
X23060Y12140D01*
X23020D01*
X23060Y12100D01*
X23020Y12060D01*
X23060D01*
X23100Y12020D01*
X21200D02*
X21240Y12060D01*
X21280D01*
X21240Y12100D01*
X21280Y12140D01*
X21240D01*
X21200Y12180D01*
X21160Y12140D01*
X21120D01*
X21160Y12100D01*
X21120Y12060D01*
X21160D01*
X21200Y12020D01*
X19200D02*
X19240Y12060D01*
X19280D01*
X19240Y12100D01*
X19280Y12140D01*
X19240D01*
X19200Y12180D01*
X19160Y12140D01*
X19120D01*
X19160Y12100D01*
X19120Y12060D01*
X19160D01*
X19200Y12020D01*
X17300D02*
X17340Y12060D01*
X17380D01*
X17340Y12100D01*
X17380Y12140D01*
X17340D01*
X17300Y12180D01*
X17260Y12140D01*
X17220D01*
X17260Y12100D01*
X17220Y12060D01*
X17260D01*
X17300Y12020D01*
X15400D02*
X15440Y12060D01*
X15480D01*
X15440Y12100D01*
X15480Y12140D01*
X15440D01*
X15400Y12180D01*
X15360Y12140D01*
X15320D01*
X15360Y12100D01*
X15320Y12060D01*
X15360D01*
X15400Y12020D01*
X13500D02*
X13540Y12060D01*
X13580D01*
X13540Y12100D01*
X13580Y12140D01*
X13540D01*
X13500Y12180D01*
X13460Y12140D01*
X13420D01*
X13460Y12100D01*
X13420Y12060D01*
X13460D01*
X13500Y12020D01*
X11600D02*
X11640Y12060D01*
X11680D01*
X11640Y12100D01*
X11680Y12140D01*
X11640D01*
X11600Y12180D01*
X11560Y12140D01*
X11520D01*
X11560Y12100D01*
X11520Y12060D01*
X11560D01*
X11600Y12020D01*
X9700D02*
X9740Y12060D01*
X9780D01*
X9740Y12100D01*
X9780Y12140D01*
X9740D01*
X9700Y12180D01*
X9660Y12140D01*
X9620D01*
X9660Y12100D01*
X9620Y12060D01*
X9660D01*
X9700Y12020D01*
X7800D02*
X7840Y12060D01*
X7880D01*
X7840Y12100D01*
X7880Y12140D01*
X7840D01*
X7800Y12180D01*
X7760Y12140D01*
X7720D01*
X7760Y12100D01*
X7720Y12060D01*
X7760D01*
X7800Y12020D01*
X5900D02*
X5940Y12060D01*
X5980D01*
X5940Y12100D01*
X5980Y12140D01*
X5940D01*
X5900Y12180D01*
X5860Y12140D01*
X5820D01*
X5860Y12100D01*
X5820Y12060D01*
X5860D01*
X5900Y12020D01*
X4000D02*
X4040Y12060D01*
X4080D01*
X4040Y12100D01*
X4080Y12140D01*
X4040D01*
X4000Y12180D01*
X3960Y12140D01*
X3920D01*
X3960Y12100D01*
X3920Y12060D01*
X3960D01*
X4000Y12020D01*
X30700Y32920D02*
X30740Y32960D01*
X30780D01*
X30740Y33000D01*
X30780Y33040D01*
X30740D01*
X30700Y33080D01*
X30660Y33040D01*
X30620D01*
X30660Y33000D01*
X30620Y32960D01*
X30660D01*
X30700Y32920D01*
X23100D02*
X23140Y32960D01*
X23180D01*
X23140Y33000D01*
X23180Y33040D01*
X23140D01*
X23100Y33080D01*
X23060Y33040D01*
X23020D01*
X23060Y33000D01*
X23020Y32960D01*
X23060D01*
X23100Y32920D01*
X21200D02*
X21240Y32960D01*
X21280D01*
X21240Y33000D01*
X21280Y33040D01*
X21240D01*
X21200Y33080D01*
X21160Y33040D01*
X21120D01*
X21160Y33000D01*
X21120Y32960D01*
X21160D01*
X21200Y32920D01*
X19200D02*
X19240Y32960D01*
X19280D01*
X19240Y33000D01*
X19280Y33040D01*
X19240D01*
X19200Y33080D01*
X19160Y33040D01*
X19120D01*
X19160Y33000D01*
X19120Y32960D01*
X19160D01*
X19200Y32920D01*
X17300D02*
X17340Y32960D01*
X17380D01*
X17340Y33000D01*
X17380Y33040D01*
X17340D01*
X17300Y33080D01*
X17260Y33040D01*
X17220D01*
X17260Y33000D01*
X17220Y32960D01*
X17260D01*
X17300Y32920D01*
X15400D02*
X15440Y32960D01*
X15480D01*
X15440Y33000D01*
X15480Y33040D01*
X15440D01*
X15400Y33080D01*
X15360Y33040D01*
X15320D01*
X15360Y33000D01*
X15320Y32960D01*
X15360D01*
X15400Y32920D01*
X13500D02*
X13540Y32960D01*
X13580D01*
X13540Y33000D01*
X13580Y33040D01*
X13540D01*
X13500Y33080D01*
X13460Y33040D01*
X13420D01*
X13460Y33000D01*
X13420Y32960D01*
X13460D01*
X13500Y32920D01*
X11600D02*
X11640Y32960D01*
X11680D01*
X11640Y33000D01*
X11680Y33040D01*
X11640D01*
X11600Y33080D01*
X11560Y33040D01*
X11520D01*
X11560Y33000D01*
X11520Y32960D01*
X11560D01*
X11600Y32920D01*
X9700D02*
X9740Y32960D01*
X9780D01*
X9740Y33000D01*
X9780Y33040D01*
X9740D01*
X9700Y33080D01*
X9660Y33040D01*
X9620D01*
X9660Y33000D01*
X9620Y32960D01*
X9660D01*
X9700Y32920D01*
X7800D02*
X7840Y32960D01*
X7880D01*
X7840Y33000D01*
X7880Y33040D01*
X7840D01*
X7800Y33080D01*
X7760Y33040D01*
X7720D01*
X7760Y33000D01*
X7720Y32960D01*
X7760D01*
X7800Y32920D01*
X5900D02*
X5940Y32960D01*
X5980D01*
X5940Y33000D01*
X5980Y33040D01*
X5940D01*
X5900Y33080D01*
X5860Y33040D01*
X5820D01*
X5860Y33000D01*
X5820Y32960D01*
X5860D01*
X5900Y32920D01*
X4000D02*
X4040Y32960D01*
X4080D01*
X4040Y33000D01*
X4080Y33040D01*
X4040D01*
X4000Y33080D01*
X3960Y33040D01*
X3920D01*
X3960Y33000D01*
X3920Y32960D01*
X3960D01*
X4000Y32920D01*
X30700Y31020D02*
X30740Y31060D01*
X30780D01*
X30740Y31100D01*
X30780Y31140D01*
X30740D01*
X30700Y31180D01*
X30660Y31140D01*
X30620D01*
X30660Y31100D01*
X30620Y31060D01*
X30660D01*
X30700Y31020D01*
X23100D02*
X23140Y31060D01*
X23180D01*
X23140Y31100D01*
X23180Y31140D01*
X23140D01*
X23100Y31180D01*
X23060Y31140D01*
X23020D01*
X23060Y31100D01*
X23020Y31060D01*
X23060D01*
X23100Y31020D01*
X21200D02*
X21240Y31060D01*
X21280D01*
X21240Y31100D01*
X21280Y31140D01*
X21240D01*
X21200Y31180D01*
X21160Y31140D01*
X21120D01*
X21160Y31100D01*
X21120Y31060D01*
X21160D01*
X21200Y31020D01*
X19200D02*
X19240Y31060D01*
X19280D01*
X19240Y31100D01*
X19280Y31140D01*
X19240D01*
X19200Y31180D01*
X19160Y31140D01*
X19120D01*
X19160Y31100D01*
X19120Y31060D01*
X19160D01*
X19200Y31020D01*
X17300D02*
X17340Y31060D01*
X17380D01*
X17340Y31100D01*
X17380Y31140D01*
X17340D01*
X17300Y31180D01*
X17260Y31140D01*
X17220D01*
X17260Y31100D01*
X17220Y31060D01*
X17260D01*
X17300Y31020D01*
X15400D02*
X15440Y31060D01*
X15480D01*
X15440Y31100D01*
X15480Y31140D01*
X15440D01*
X15400Y31180D01*
X15360Y31140D01*
X15320D01*
X15360Y31100D01*
X15320Y31060D01*
X15360D01*
X15400Y31020D01*
X13500D02*
X13540Y31060D01*
X13580D01*
X13540Y31100D01*
X13580Y31140D01*
X13540D01*
X13500Y31180D01*
X13460Y31140D01*
X13420D01*
X13460Y31100D01*
X13420Y31060D01*
X13460D01*
X13500Y31020D01*
X11600D02*
X11640Y31060D01*
X11680D01*
X11640Y31100D01*
X11680Y31140D01*
X11640D01*
X11600Y31180D01*
X11560Y31140D01*
X11520D01*
X11560Y31100D01*
X11520Y31060D01*
X11560D01*
X11600Y31020D01*
X9700D02*
X9740Y31060D01*
X9780D01*
X9740Y31100D01*
X9780Y31140D01*
X9740D01*
X9700Y31180D01*
X9660Y31140D01*
X9620D01*
X9660Y31100D01*
X9620Y31060D01*
X9660D01*
X9700Y31020D01*
X7800D02*
X7840Y31060D01*
X7880D01*
X7840Y31100D01*
X7880Y31140D01*
X7840D01*
X7800Y31180D01*
X7760Y31140D01*
X7720D01*
X7760Y31100D01*
X7720Y31060D01*
X7760D01*
X7800Y31020D01*
X5900D02*
X5940Y31060D01*
X5980D01*
X5940Y31100D01*
X5980Y31140D01*
X5940D01*
X5900Y31180D01*
X5860Y31140D01*
X5820D01*
X5860Y31100D01*
X5820Y31060D01*
X5860D01*
X5900Y31020D01*
X4000D02*
X4040Y31060D01*
X4080D01*
X4040Y31100D01*
X4080Y31140D01*
X4040D01*
X4000Y31180D01*
X3960Y31140D01*
X3920D01*
X3960Y31100D01*
X3920Y31060D01*
X3960D01*
X4000Y31020D01*
X30700Y29120D02*
X30740Y29160D01*
X30780D01*
X30740Y29200D01*
X30780Y29240D01*
X30740D01*
X30700Y29280D01*
X30660Y29240D01*
X30620D01*
X30660Y29200D01*
X30620Y29160D01*
X30660D01*
X30700Y29120D01*
X23100D02*
X23140Y29160D01*
X23180D01*
X23140Y29200D01*
X23180Y29240D01*
X23140D01*
X23100Y29280D01*
X23060Y29240D01*
X23020D01*
X23060Y29200D01*
X23020Y29160D01*
X23060D01*
X23100Y29120D01*
X21200D02*
X21240Y29160D01*
X21280D01*
X21240Y29200D01*
X21280Y29240D01*
X21240D01*
X21200Y29280D01*
X21160Y29240D01*
X21120D01*
X21160Y29200D01*
X21120Y29160D01*
X21160D01*
X21200Y29120D01*
X19200D02*
X19240Y29160D01*
X19280D01*
X19240Y29200D01*
X19280Y29240D01*
X19240D01*
X19200Y29280D01*
X19160Y29240D01*
X19120D01*
X19160Y29200D01*
X19120Y29160D01*
X19160D01*
X19200Y29120D01*
X17300D02*
X17340Y29160D01*
X17380D01*
X17340Y29200D01*
X17380Y29240D01*
X17340D01*
X17300Y29280D01*
X17260Y29240D01*
X17220D01*
X17260Y29200D01*
X17220Y29160D01*
X17260D01*
X17300Y29120D01*
X15400D02*
X15440Y29160D01*
X15480D01*
X15440Y29200D01*
X15480Y29240D01*
X15440D01*
X15400Y29280D01*
X15360Y29240D01*
X15320D01*
X15360Y29200D01*
X15320Y29160D01*
X15360D01*
X15400Y29120D01*
X13500D02*
X13540Y29160D01*
X13580D01*
X13540Y29200D01*
X13580Y29240D01*
X13540D01*
X13500Y29280D01*
X13460Y29240D01*
X13420D01*
X13460Y29200D01*
X13420Y29160D01*
X13460D01*
X13500Y29120D01*
X11600D02*
X11640Y29160D01*
X11680D01*
X11640Y29200D01*
X11680Y29240D01*
X11640D01*
X11600Y29280D01*
X11560Y29240D01*
X11520D01*
X11560Y29200D01*
X11520Y29160D01*
X11560D01*
X11600Y29120D01*
X9700D02*
X9740Y29160D01*
X9780D01*
X9740Y29200D01*
X9780Y29240D01*
X9740D01*
X9700Y29280D01*
X9660Y29240D01*
X9620D01*
X9660Y29200D01*
X9620Y29160D01*
X9660D01*
X9700Y29120D01*
X7800D02*
X7840Y29160D01*
X7880D01*
X7840Y29200D01*
X7880Y29240D01*
X7840D01*
X7800Y29280D01*
X7760Y29240D01*
X7720D01*
X7760Y29200D01*
X7720Y29160D01*
X7760D01*
X7800Y29120D01*
X5900D02*
X5940Y29160D01*
X5980D01*
X5940Y29200D01*
X5980Y29240D01*
X5940D01*
X5900Y29280D01*
X5860Y29240D01*
X5820D01*
X5860Y29200D01*
X5820Y29160D01*
X5860D01*
X5900Y29120D01*
X4000D02*
X4040Y29160D01*
X4080D01*
X4040Y29200D01*
X4080Y29240D01*
X4040D01*
X4000Y29280D01*
X3960Y29240D01*
X3920D01*
X3960Y29200D01*
X3920Y29160D01*
X3960D01*
X4000Y29120D01*
X30700Y27220D02*
X30740Y27260D01*
X30780D01*
X30740Y27300D01*
X30780Y27340D01*
X30740D01*
X30700Y27380D01*
X30660Y27340D01*
X30620D01*
X30660Y27300D01*
X30620Y27260D01*
X30660D01*
X30700Y27220D01*
X23100D02*
X23140Y27260D01*
X23180D01*
X23140Y27300D01*
X23180Y27340D01*
X23140D01*
X23100Y27380D01*
X23060Y27340D01*
X23020D01*
X23060Y27300D01*
X23020Y27260D01*
X23060D01*
X23100Y27220D01*
X21200D02*
X21240Y27260D01*
X21280D01*
X21240Y27300D01*
X21280Y27340D01*
X21240D01*
X21200Y27380D01*
X21160Y27340D01*
X21120D01*
X21160Y27300D01*
X21120Y27260D01*
X21160D01*
X21200Y27220D01*
X19200D02*
X19240Y27260D01*
X19280D01*
X19240Y27300D01*
X19280Y27340D01*
X19240D01*
X19200Y27380D01*
X19160Y27340D01*
X19120D01*
X19160Y27300D01*
X19120Y27260D01*
X19160D01*
X19200Y27220D01*
X17300D02*
X17340Y27260D01*
X17380D01*
X17340Y27300D01*
X17380Y27340D01*
X17340D01*
X17300Y27380D01*
X17260Y27340D01*
X17220D01*
X17260Y27300D01*
X17220Y27260D01*
X17260D01*
X17300Y27220D01*
X15400D02*
X15440Y27260D01*
X15480D01*
X15440Y27300D01*
X15480Y27340D01*
X15440D01*
X15400Y27380D01*
X15360Y27340D01*
X15320D01*
X15360Y27300D01*
X15320Y27260D01*
X15360D01*
X15400Y27220D01*
X13500D02*
X13540Y27260D01*
X13580D01*
X13540Y27300D01*
X13580Y27340D01*
X13540D01*
X13500Y27380D01*
X13460Y27340D01*
X13420D01*
X13460Y27300D01*
X13420Y27260D01*
X13460D01*
X13500Y27220D01*
X11600D02*
X11640Y27260D01*
X11680D01*
X11640Y27300D01*
X11680Y27340D01*
X11640D01*
X11600Y27380D01*
X11560Y27340D01*
X11520D01*
X11560Y27300D01*
X11520Y27260D01*
X11560D01*
X11600Y27220D01*
X9700D02*
X9740Y27260D01*
X9780D01*
X9740Y27300D01*
X9780Y27340D01*
X9740D01*
X9700Y27380D01*
X9660Y27340D01*
X9620D01*
X9660Y27300D01*
X9620Y27260D01*
X9660D01*
X9700Y27220D01*
X7800D02*
X7840Y27260D01*
X7880D01*
X7840Y27300D01*
X7880Y27340D01*
X7840D01*
X7800Y27380D01*
X7760Y27340D01*
X7720D01*
X7760Y27300D01*
X7720Y27260D01*
X7760D01*
X7800Y27220D01*
X5900D02*
X5940Y27260D01*
X5980D01*
X5940Y27300D01*
X5980Y27340D01*
X5940D01*
X5900Y27380D01*
X5860Y27340D01*
X5820D01*
X5860Y27300D01*
X5820Y27260D01*
X5860D01*
X5900Y27220D01*
X4000D02*
X4040Y27260D01*
X4080D01*
X4040Y27300D01*
X4080Y27340D01*
X4040D01*
X4000Y27380D01*
X3960Y27340D01*
X3920D01*
X3960Y27300D01*
X3920Y27260D01*
X3960D01*
X4000Y27220D01*
X30700Y25320D02*
X30740Y25360D01*
X30780D01*
X30740Y25400D01*
X30780Y25440D01*
X30740D01*
X30700Y25480D01*
X30660Y25440D01*
X30620D01*
X30660Y25400D01*
X30620Y25360D01*
X30660D01*
X30700Y25320D01*
X23100D02*
X23140Y25360D01*
X23180D01*
X23140Y25400D01*
X23180Y25440D01*
X23140D01*
X23100Y25480D01*
X23060Y25440D01*
X23020D01*
X23060Y25400D01*
X23020Y25360D01*
X23060D01*
X23100Y25320D01*
X21200D02*
X21240Y25360D01*
X21280D01*
X21240Y25400D01*
X21280Y25440D01*
X21240D01*
X21200Y25480D01*
X21160Y25440D01*
X21120D01*
X21160Y25400D01*
X21120Y25360D01*
X21160D01*
X21200Y25320D01*
X19200D02*
X19240Y25360D01*
X19280D01*
X19240Y25400D01*
X19280Y25440D01*
X19240D01*
X19200Y25480D01*
X19160Y25440D01*
X19120D01*
X19160Y25400D01*
X19120Y25360D01*
X19160D01*
X19200Y25320D01*
X17300D02*
X17340Y25360D01*
X17380D01*
X17340Y25400D01*
X17380Y25440D01*
X17340D01*
X17300Y25480D01*
X17260Y25440D01*
X17220D01*
X17260Y25400D01*
X17220Y25360D01*
X17260D01*
X17300Y25320D01*
X15400D02*
X15440Y25360D01*
X15480D01*
X15440Y25400D01*
X15480Y25440D01*
X15440D01*
X15400Y25480D01*
X15360Y25440D01*
X15320D01*
X15360Y25400D01*
X15320Y25360D01*
X15360D01*
X15400Y25320D01*
X13500D02*
X13540Y25360D01*
X13580D01*
X13540Y25400D01*
X13580Y25440D01*
X13540D01*
X13500Y25480D01*
X13460Y25440D01*
X13420D01*
X13460Y25400D01*
X13420Y25360D01*
X13460D01*
X13500Y25320D01*
X11600D02*
X11640Y25360D01*
X11680D01*
X11640Y25400D01*
X11680Y25440D01*
X11640D01*
X11600Y25480D01*
X11560Y25440D01*
X11520D01*
X11560Y25400D01*
X11520Y25360D01*
X11560D01*
X11600Y25320D01*
X9700D02*
X9740Y25360D01*
X9780D01*
X9740Y25400D01*
X9780Y25440D01*
X9740D01*
X9700Y25480D01*
X9660Y25440D01*
X9620D01*
X9660Y25400D01*
X9620Y25360D01*
X9660D01*
X9700Y25320D01*
X7800D02*
X7840Y25360D01*
X7880D01*
X7840Y25400D01*
X7880Y25440D01*
X7840D01*
X7800Y25480D01*
X7760Y25440D01*
X7720D01*
X7760Y25400D01*
X7720Y25360D01*
X7760D01*
X7800Y25320D01*
X5900D02*
X5940Y25360D01*
X5980D01*
X5940Y25400D01*
X5980Y25440D01*
X5940D01*
X5900Y25480D01*
X5860Y25440D01*
X5820D01*
X5860Y25400D01*
X5820Y25360D01*
X5860D01*
X5900Y25320D01*
X4000D02*
X4040Y25360D01*
X4080D01*
X4040Y25400D01*
X4080Y25440D01*
X4040D01*
X4000Y25480D01*
X3960Y25440D01*
X3920D01*
X3960Y25400D01*
X3920Y25360D01*
X3960D01*
X4000Y25320D01*
X30700Y23420D02*
X30740Y23460D01*
X30780D01*
X30740Y23500D01*
X30780Y23540D01*
X30740D01*
X30700Y23580D01*
X30660Y23540D01*
X30620D01*
X30660Y23500D01*
X30620Y23460D01*
X30660D01*
X30700Y23420D01*
X23100D02*
X23140Y23460D01*
X23180D01*
X23140Y23500D01*
X23180Y23540D01*
X23140D01*
X23100Y23580D01*
X23060Y23540D01*
X23020D01*
X23060Y23500D01*
X23020Y23460D01*
X23060D01*
X23100Y23420D01*
X21200D02*
X21240Y23460D01*
X21280D01*
X21240Y23500D01*
X21280Y23540D01*
X21240D01*
X21200Y23580D01*
X21160Y23540D01*
X21120D01*
X21160Y23500D01*
X21120Y23460D01*
X21160D01*
X21200Y23420D01*
X19200D02*
X19240Y23460D01*
X19280D01*
X19240Y23500D01*
X19280Y23540D01*
X19240D01*
X19200Y23580D01*
X19160Y23540D01*
X19120D01*
X19160Y23500D01*
X19120Y23460D01*
X19160D01*
X19200Y23420D01*
X17300D02*
X17340Y23460D01*
X17380D01*
X17340Y23500D01*
X17380Y23540D01*
X17340D01*
X17300Y23580D01*
X17260Y23540D01*
X17220D01*
X17260Y23500D01*
X17220Y23460D01*
X17260D01*
X17300Y23420D01*
X15400D02*
X15440Y23460D01*
X15480D01*
X15440Y23500D01*
X15480Y23540D01*
X15440D01*
X15400Y23580D01*
X15360Y23540D01*
X15320D01*
X15360Y23500D01*
X15320Y23460D01*
X15360D01*
X15400Y23420D01*
X13500D02*
X13540Y23460D01*
X13580D01*
X13540Y23500D01*
X13580Y23540D01*
X13540D01*
X13500Y23580D01*
X13460Y23540D01*
X13420D01*
X13460Y23500D01*
X13420Y23460D01*
X13460D01*
X13500Y23420D01*
X11600D02*
X11640Y23460D01*
X11680D01*
X11640Y23500D01*
X11680Y23540D01*
X11640D01*
X11600Y23580D01*
X11560Y23540D01*
X11520D01*
X11560Y23500D01*
X11520Y23460D01*
X11560D01*
X11600Y23420D01*
X9700D02*
X9740Y23460D01*
X9780D01*
X9740Y23500D01*
X9780Y23540D01*
X9740D01*
X9700Y23580D01*
X9660Y23540D01*
X9620D01*
X9660Y23500D01*
X9620Y23460D01*
X9660D01*
X9700Y23420D01*
X7800D02*
X7840Y23460D01*
X7880D01*
X7840Y23500D01*
X7880Y23540D01*
X7840D01*
X7800Y23580D01*
X7760Y23540D01*
X7720D01*
X7760Y23500D01*
X7720Y23460D01*
X7760D01*
X7800Y23420D01*
X5900D02*
X5940Y23460D01*
X5980D01*
X5940Y23500D01*
X5980Y23540D01*
X5940D01*
X5900Y23580D01*
X5860Y23540D01*
X5820D01*
X5860Y23500D01*
X5820Y23460D01*
X5860D01*
X5900Y23420D01*
X4000D02*
X4040Y23460D01*
X4080D01*
X4040Y23500D01*
X4080Y23540D01*
X4040D01*
X4000Y23580D01*
X3960Y23540D01*
X3920D01*
X3960Y23500D01*
X3920Y23460D01*
X3960D01*
X4000Y23420D01*
X30700Y21520D02*
X30740Y21560D01*
X30780D01*
X30740Y21600D01*
X30780Y21640D01*
X30740D01*
X30700Y21680D01*
X30660Y21640D01*
X30620D01*
X30660Y21600D01*
X30620Y21560D01*
X30660D01*
X30700Y21520D01*
X23100D02*
X23140Y21560D01*
X23180D01*
X23140Y21600D01*
X23180Y21640D01*
X23140D01*
X23100Y21680D01*
X23060Y21640D01*
X23020D01*
X23060Y21600D01*
X23020Y21560D01*
X23060D01*
X23100Y21520D01*
X21200D02*
X21240Y21560D01*
X21280D01*
X21240Y21600D01*
X21280Y21640D01*
X21240D01*
X21200Y21680D01*
X21160Y21640D01*
X21120D01*
X21160Y21600D01*
X21120Y21560D01*
X21160D01*
X21200Y21520D01*
X19200D02*
X19240Y21560D01*
X19280D01*
X19240Y21600D01*
X19280Y21640D01*
X19240D01*
X19200Y21680D01*
X19160Y21640D01*
X19120D01*
X19160Y21600D01*
X19120Y21560D01*
X19160D01*
X19200Y21520D01*
X17300D02*
X17340Y21560D01*
X17380D01*
X17340Y21600D01*
X17380Y21640D01*
X17340D01*
X17300Y21680D01*
X17260Y21640D01*
X17220D01*
X17260Y21600D01*
X17220Y21560D01*
X17260D01*
X17300Y21520D01*
X15400D02*
X15440Y21560D01*
X15480D01*
X15440Y21600D01*
X15480Y21640D01*
X15440D01*
X15400Y21680D01*
X15360Y21640D01*
X15320D01*
X15360Y21600D01*
X15320Y21560D01*
X15360D01*
X15400Y21520D01*
X13500D02*
X13540Y21560D01*
X13580D01*
X13540Y21600D01*
X13580Y21640D01*
X13540D01*
X13500Y21680D01*
X13460Y21640D01*
X13420D01*
X13460Y21600D01*
X13420Y21560D01*
X13460D01*
X13500Y21520D01*
X11600D02*
X11640Y21560D01*
X11680D01*
X11640Y21600D01*
X11680Y21640D01*
X11640D01*
X11600Y21680D01*
X11560Y21640D01*
X11520D01*
X11560Y21600D01*
X11520Y21560D01*
X11560D01*
X11600Y21520D01*
X9700D02*
X9740Y21560D01*
X9780D01*
X9740Y21600D01*
X9780Y21640D01*
X9740D01*
X9700Y21680D01*
X9660Y21640D01*
X9620D01*
X9660Y21600D01*
X9620Y21560D01*
X9660D01*
X9700Y21520D01*
X7800D02*
X7840Y21560D01*
X7880D01*
X7840Y21600D01*
X7880Y21640D01*
X7840D01*
X7800Y21680D01*
X7760Y21640D01*
X7720D01*
X7760Y21600D01*
X7720Y21560D01*
X7760D01*
X7800Y21520D01*
X5900D02*
X5940Y21560D01*
X5980D01*
X5940Y21600D01*
X5980Y21640D01*
X5940D01*
X5900Y21680D01*
X5860Y21640D01*
X5820D01*
X5860Y21600D01*
X5820Y21560D01*
X5860D01*
X5900Y21520D01*
X4000D02*
X4040Y21560D01*
X4080D01*
X4040Y21600D01*
X4080Y21640D01*
X4040D01*
X4000Y21680D01*
X3960Y21640D01*
X3920D01*
X3960Y21600D01*
X3920Y21560D01*
X3960D01*
X4000Y21520D01*
X30700Y19620D02*
X30740Y19660D01*
X30780D01*
X30740Y19700D01*
X30780Y19740D01*
X30740D01*
X30700Y19780D01*
X30660Y19740D01*
X30620D01*
X30660Y19700D01*
X30620Y19660D01*
X30660D01*
X30700Y19620D01*
X23100D02*
X23140Y19660D01*
X23180D01*
X23140Y19700D01*
X23180Y19740D01*
X23140D01*
X23100Y19780D01*
X23060Y19740D01*
X23020D01*
X23060Y19700D01*
X23020Y19660D01*
X23060D01*
X23100Y19620D01*
X21200D02*
X21240Y19660D01*
X21280D01*
X21240Y19700D01*
X21280Y19740D01*
X21240D01*
X21200Y19780D01*
X21160Y19740D01*
X21120D01*
X21160Y19700D01*
X21120Y19660D01*
X21160D01*
X21200Y19620D01*
X19200D02*
X19240Y19660D01*
X19280D01*
X19240Y19700D01*
X19280Y19740D01*
X19240D01*
X19200Y19780D01*
X19160Y19740D01*
X19120D01*
X19160Y19700D01*
X19120Y19660D01*
X19160D01*
X19200Y19620D01*
X17300D02*
X17340Y19660D01*
X17380D01*
X17340Y19700D01*
X17380Y19740D01*
X17340D01*
X17300Y19780D01*
X17260Y19740D01*
X17220D01*
X17260Y19700D01*
X17220Y19660D01*
X17260D01*
X17300Y19620D01*
X15400D02*
X15440Y19660D01*
X15480D01*
X15440Y19700D01*
X15480Y19740D01*
X15440D01*
X15400Y19780D01*
X15360Y19740D01*
X15320D01*
X15360Y19700D01*
X15320Y19660D01*
X15360D01*
X15400Y19620D01*
X13500D02*
X13540Y19660D01*
X13580D01*
X13540Y19700D01*
X13580Y19740D01*
X13540D01*
X13500Y19780D01*
X13460Y19740D01*
X13420D01*
X13460Y19700D01*
X13420Y19660D01*
X13460D01*
X13500Y19620D01*
X11600D02*
X11640Y19660D01*
X11680D01*
X11640Y19700D01*
X11680Y19740D01*
X11640D01*
X11600Y19780D01*
X11560Y19740D01*
X11520D01*
X11560Y19700D01*
X11520Y19660D01*
X11560D01*
X11600Y19620D01*
X9700D02*
X9740Y19660D01*
X9780D01*
X9740Y19700D01*
X9780Y19740D01*
X9740D01*
X9700Y19780D01*
X9660Y19740D01*
X9620D01*
X9660Y19700D01*
X9620Y19660D01*
X9660D01*
X9700Y19620D01*
X7800D02*
X7840Y19660D01*
X7880D01*
X7840Y19700D01*
X7880Y19740D01*
X7840D01*
X7800Y19780D01*
X7760Y19740D01*
X7720D01*
X7760Y19700D01*
X7720Y19660D01*
X7760D01*
X7800Y19620D01*
X5900D02*
X5940Y19660D01*
X5980D01*
X5940Y19700D01*
X5980Y19740D01*
X5940D01*
X5900Y19780D01*
X5860Y19740D01*
X5820D01*
X5860Y19700D01*
X5820Y19660D01*
X5860D01*
X5900Y19620D01*
X4000D02*
X4040Y19660D01*
X4080D01*
X4040Y19700D01*
X4080Y19740D01*
X4040D01*
X4000Y19780D01*
X3960Y19740D01*
X3920D01*
X3960Y19700D01*
X3920Y19660D01*
X3960D01*
X4000Y19620D01*
X30700Y17720D02*
X30740Y17760D01*
X30780D01*
X30740Y17800D01*
X30780Y17840D01*
X30740D01*
X30700Y17880D01*
X30660Y17840D01*
X30620D01*
X30660Y17800D01*
X30620Y17760D01*
X30660D01*
X30700Y17720D01*
X23100D02*
X23140Y17760D01*
X23180D01*
X23140Y17800D01*
X23180Y17840D01*
X23140D01*
X23100Y17880D01*
X23060Y17840D01*
X23020D01*
X23060Y17800D01*
X23020Y17760D01*
X23060D01*
X23100Y17720D01*
X21200D02*
X21240Y17760D01*
X21280D01*
X21240Y17800D01*
X21280Y17840D01*
X21240D01*
X21200Y17880D01*
X21160Y17840D01*
X21120D01*
X21160Y17800D01*
X21120Y17760D01*
X21160D01*
X21200Y17720D01*
X19200D02*
X19240Y17760D01*
X19280D01*
X19240Y17800D01*
X19280Y17840D01*
X19240D01*
X19200Y17880D01*
X19160Y17840D01*
X19120D01*
X19160Y17800D01*
X19120Y17760D01*
X19160D01*
X19200Y17720D01*
X17300D02*
X17340Y17760D01*
X17380D01*
X17340Y17800D01*
X17380Y17840D01*
X17340D01*
X17300Y17880D01*
X17260Y17840D01*
X17220D01*
X17260Y17800D01*
X17220Y17760D01*
X17260D01*
X17300Y17720D01*
X15400D02*
X15440Y17760D01*
X15480D01*
X15440Y17800D01*
X15480Y17840D01*
X15440D01*
X15400Y17880D01*
X15360Y17840D01*
X15320D01*
X15360Y17800D01*
X15320Y17760D01*
X15360D01*
X15400Y17720D01*
X13500D02*
X13540Y17760D01*
X13580D01*
X13540Y17800D01*
X13580Y17840D01*
X13540D01*
X13500Y17880D01*
X13460Y17840D01*
X13420D01*
X13460Y17800D01*
X13420Y17760D01*
X13460D01*
X13500Y17720D01*
X11600D02*
X11640Y17760D01*
X11680D01*
X11640Y17800D01*
X11680Y17840D01*
X11640D01*
X11600Y17880D01*
X11560Y17840D01*
X11520D01*
X11560Y17800D01*
X11520Y17760D01*
X11560D01*
X11600Y17720D01*
X9700D02*
X9740Y17760D01*
X9780D01*
X9740Y17800D01*
X9780Y17840D01*
X9740D01*
X9700Y17880D01*
X9660Y17840D01*
X9620D01*
X9660Y17800D01*
X9620Y17760D01*
X9660D01*
X9700Y17720D01*
X7800D02*
X7840Y17760D01*
X7880D01*
X7840Y17800D01*
X7880Y17840D01*
X7840D01*
X7800Y17880D01*
X7760Y17840D01*
X7720D01*
X7760Y17800D01*
X7720Y17760D01*
X7760D01*
X7800Y17720D01*
X5900D02*
X5940Y17760D01*
X5980D01*
X5940Y17800D01*
X5980Y17840D01*
X5940D01*
X5900Y17880D01*
X5860Y17840D01*
X5820D01*
X5860Y17800D01*
X5820Y17760D01*
X5860D01*
X5900Y17720D01*
X4000D02*
X4040Y17760D01*
X4080D01*
X4040Y17800D01*
X4080Y17840D01*
X4040D01*
X4000Y17880D01*
X3960Y17840D01*
X3920D01*
X3960Y17800D01*
X3920Y17760D01*
X3960D01*
X4000Y17720D01*
X30700Y15820D02*
X30740Y15860D01*
X30780D01*
X30740Y15900D01*
X30780Y15940D01*
X30740D01*
X30700Y15980D01*
X30660Y15940D01*
X30620D01*
X30660Y15900D01*
X30620Y15860D01*
X30660D01*
X30700Y15820D01*
X23100D02*
X23140Y15860D01*
X23180D01*
X23140Y15900D01*
X23180Y15940D01*
X23140D01*
X23100Y15980D01*
X23060Y15940D01*
X23020D01*
X23060Y15900D01*
X23020Y15860D01*
X23060D01*
X23100Y15820D01*
X21200D02*
X21240Y15860D01*
X21280D01*
X21240Y15900D01*
X21280Y15940D01*
X21240D01*
X21200Y15980D01*
X21160Y15940D01*
X21120D01*
X21160Y15900D01*
X21120Y15860D01*
X21160D01*
X21200Y15820D01*
X19200D02*
X19240Y15860D01*
X19280D01*
X19240Y15900D01*
X19280Y15940D01*
X19240D01*
X19200Y15980D01*
X19160Y15940D01*
X19120D01*
X19160Y15900D01*
X19120Y15860D01*
X19160D01*
X19200Y15820D01*
X17300D02*
X17340Y15860D01*
X17380D01*
X17340Y15900D01*
X17380Y15940D01*
X17340D01*
X17300Y15980D01*
X17260Y15940D01*
X17220D01*
X17260Y15900D01*
X17220Y15860D01*
X17260D01*
X17300Y15820D01*
X15400D02*
X15440Y15860D01*
X15480D01*
X15440Y15900D01*
X15480Y15940D01*
X15440D01*
X15400Y15980D01*
X15360Y15940D01*
X15320D01*
X15360Y15900D01*
X15320Y15860D01*
X15360D01*
X15400Y15820D01*
X13500D02*
X13540Y15860D01*
X13580D01*
X13540Y15900D01*
X13580Y15940D01*
X13540D01*
X13500Y15980D01*
X13460Y15940D01*
X13420D01*
X13460Y15900D01*
X13420Y15860D01*
X13460D01*
X13500Y15820D01*
X11600D02*
X11640Y15860D01*
X11680D01*
X11640Y15900D01*
X11680Y15940D01*
X11640D01*
X11600Y15980D01*
X11560Y15940D01*
X11520D01*
X11560Y15900D01*
X11520Y15860D01*
X11560D01*
X11600Y15820D01*
X9700D02*
X9740Y15860D01*
X9780D01*
X9740Y15900D01*
X9780Y15940D01*
X9740D01*
X9700Y15980D01*
X9660Y15940D01*
X9620D01*
X9660Y15900D01*
X9620Y15860D01*
X9660D01*
X9700Y15820D01*
X7800D02*
X7840Y15860D01*
X7880D01*
X7840Y15900D01*
X7880Y15940D01*
X7840D01*
X7800Y15980D01*
X7760Y15940D01*
X7720D01*
X7760Y15900D01*
X7720Y15860D01*
X7760D01*
X7800Y15820D01*
X5900D02*
X5940Y15860D01*
X5980D01*
X5940Y15900D01*
X5980Y15940D01*
X5940D01*
X5900Y15980D01*
X5860Y15940D01*
X5820D01*
X5860Y15900D01*
X5820Y15860D01*
X5860D01*
X5900Y15820D01*
X4000D02*
X4040Y15860D01*
X4080D01*
X4040Y15900D01*
X4080Y15940D01*
X4040D01*
X4000Y15980D01*
X3960Y15940D01*
X3920D01*
X3960Y15900D01*
X3920Y15860D01*
X3960D01*
X4000Y15820D01*
X30700Y13920D02*
X30740Y13960D01*
X30780D01*
X30740Y14000D01*
X30780Y14040D01*
X30740D01*
X30700Y14080D01*
X30660Y14040D01*
X30620D01*
X30660Y14000D01*
X30620Y13960D01*
X30660D01*
X30700Y13920D01*
X23100D02*
X23140Y13960D01*
X23180D01*
X23140Y14000D01*
X23180Y14040D01*
X23140D01*
X23100Y14080D01*
X23060Y14040D01*
X23020D01*
X23060Y14000D01*
X23020Y13960D01*
X23060D01*
X23100Y13920D01*
X21200D02*
X21240Y13960D01*
X21280D01*
X21240Y14000D01*
X21280Y14040D01*
X21240D01*
X21200Y14080D01*
X21160Y14040D01*
X21120D01*
X21160Y14000D01*
X21120Y13960D01*
X21160D01*
X21200Y13920D01*
X19200D02*
X19240Y13960D01*
X19280D01*
X19240Y14000D01*
X19280Y14040D01*
X19240D01*
X19200Y14080D01*
X19160Y14040D01*
X19120D01*
X19160Y14000D01*
X19120Y13960D01*
X19160D01*
X19200Y13920D01*
X17300D02*
X17340Y13960D01*
X17380D01*
X17340Y14000D01*
X17380Y14040D01*
X17340D01*
X17300Y14080D01*
X17260Y14040D01*
X17220D01*
X17260Y14000D01*
X17220Y13960D01*
X17260D01*
X17300Y13920D01*
X15400D02*
X15440Y13960D01*
X15480D01*
X15440Y14000D01*
X15480Y14040D01*
X15440D01*
X15400Y14080D01*
X15360Y14040D01*
X15320D01*
X15360Y14000D01*
X15320Y13960D01*
X15360D01*
X15400Y13920D01*
X13500D02*
X13540Y13960D01*
X13580D01*
X13540Y14000D01*
X13580Y14040D01*
X13540D01*
X13500Y14080D01*
X13460Y14040D01*
X13420D01*
X13460Y14000D01*
X13420Y13960D01*
X13460D01*
X13500Y13920D01*
X11600D02*
X11640Y13960D01*
X11680D01*
X11640Y14000D01*
X11680Y14040D01*
X11640D01*
X11600Y14080D01*
X11560Y14040D01*
X11520D01*
X11560Y14000D01*
X11520Y13960D01*
X11560D01*
X11600Y13920D01*
X9700D02*
X9740Y13960D01*
X9780D01*
X9740Y14000D01*
X9780Y14040D01*
X9740D01*
X9700Y14080D01*
X9660Y14040D01*
X9620D01*
X9660Y14000D01*
X9620Y13960D01*
X9660D01*
X9700Y13920D01*
X7800D02*
X7840Y13960D01*
X7880D01*
X7840Y14000D01*
X7880Y14040D01*
X7840D01*
X7800Y14080D01*
X7760Y14040D01*
X7720D01*
X7760Y14000D01*
X7720Y13960D01*
X7760D01*
X7800Y13920D01*
X5900D02*
X5940Y13960D01*
X5980D01*
X5940Y14000D01*
X5980Y14040D01*
X5940D01*
X5900Y14080D01*
X5860Y14040D01*
X5820D01*
X5860Y14000D01*
X5820Y13960D01*
X5860D01*
X5900Y13920D01*
X4000D02*
X4040Y13960D01*
X4080D01*
X4040Y14000D01*
X4080Y14040D01*
X4040D01*
X4000Y14080D01*
X3960Y14040D01*
X3920D01*
X3960Y14000D01*
X3920Y13960D01*
X3960D01*
X4000Y13920D01*
X5900Y4420D02*
X5940Y4460D01*
X5980D01*
X5940Y4500D01*
X5980Y4540D01*
X5940D01*
X5900Y4580D01*
X5860Y4540D01*
X5820D01*
X5860Y4500D01*
X5820Y4460D01*
X5860D01*
X5900Y4420D01*
X7800D02*
X7840Y4460D01*
X7880D01*
X7840Y4500D01*
X7880Y4540D01*
X7840D01*
X7800Y4580D01*
X7760Y4540D01*
X7720D01*
X7760Y4500D01*
X7720Y4460D01*
X7760D01*
X7800Y4420D01*
X11600D02*
X11640Y4460D01*
X11680D01*
X11640Y4500D01*
X11680Y4540D01*
X11640D01*
X11600Y4580D01*
X11560Y4540D01*
X11520D01*
X11560Y4500D01*
X11520Y4460D01*
X11560D01*
X11600Y4420D01*
X13500D02*
X13540Y4460D01*
X13580D01*
X13540Y4500D01*
X13580Y4540D01*
X13540D01*
X13500Y4580D01*
X13460Y4540D01*
X13420D01*
X13460Y4500D01*
X13420Y4460D01*
X13460D01*
X13500Y4420D01*
X15400D02*
X15440Y4460D01*
X15480D01*
X15440Y4500D01*
X15480Y4540D01*
X15440D01*
X15400Y4580D01*
X15360Y4540D01*
X15320D01*
X15360Y4500D01*
X15320Y4460D01*
X15360D01*
X15400Y4420D01*
X17300D02*
X17340Y4460D01*
X17380D01*
X17340Y4500D01*
X17380Y4540D01*
X17340D01*
X17300Y4580D01*
X17260Y4540D01*
X17220D01*
X17260Y4500D01*
X17220Y4460D01*
X17260D01*
X17300Y4420D01*
D51*
X47180Y1000D02*
G03*
X47180Y1000I-80J0D01*
G01*
Y2000D02*
G03*
X47180Y2000I-80J0D01*
G01*
Y3000D02*
G03*
X47180Y3000I-80J0D01*
G01*
Y4000D02*
G03*
X47180Y4000I-80J0D01*
G01*
Y5000D02*
G03*
X47180Y5000I-80J0D01*
G01*
M02*
