M48
;Layer_Color=9474304
;FILE_FORMAT=2:5
INCH,LZ
;TYPE=PLATED
T1F00S00C0.01500
T2F00S00C0.03543
T3F00S00C0.04134
T4F00S00C0.04331
%
T01
X0307091Y0044909
X0307Y0064
Y0083
Y0102
Y0121
Y014
Y0159
X0359
X035875Y0154
X0355Y0149
X035875Y0108
X0396602Y01065
X0398Y0132
X0393Y0137
X0413909Y0153909
X0414Y0159
X0384Y0068
X0377602Y00625
Y00575
X0288Y0064
Y0083
Y0102
Y0121
Y014
Y0159
X0268
X025
Y014
X0269
Y0121
X025
Y0102
X0269
Y0083
X025
Y0064
X0269
Y0045
X025
X0231
X0212
Y0064
X0231
Y0083
X0212
Y0102
X0231
Y0121
X0212
Y014
Y0159
X0231
Y014
X0192
Y0121
Y0102
Y0083
Y0064
Y0045
X0173
Y0064
X0154
X0135
Y0083
X0154
X0173
Y0102
X0154
X0135
Y0121
X0154
X0173
Y014
Y0159
X0192
X0154
X0135
Y014
X0154
Y0045
X0135
X0288
X0116
X0097
Y0064
X0116
Y0083
X0097
X0078
Y0064
X0059
X004
Y0045
X0059
X0078
X0059Y0083
X004
Y0102
X0059
X0078
X0097
X0116
Y0121
X0097
X0078
X0059
X004
Y014
Y0159
X0059
X0078
X0097
X0116
Y014
X0097
X0078
X0059
Y0178
Y0197
Y0216
Y0235
Y0254
Y0273
Y0292
Y0311
X0078
X0097
X0116
Y0292
X0097
X0078
Y0273
X0097
X0116
Y0254
X0097
X0078
Y0235
X0097
X0116
Y0216
X0097
X0078
Y0197
X0097
X0116
Y0178
X0097
X0078
X004
Y0197
Y0216
Y0235
Y0254
Y0273
Y0292
Y0311
X0135
X0154
X0173
X0192
Y0292
X0173
X0154
X0135
Y0273
X0154
X0173
X0192
Y0254
X0173
X0154
X0135
Y0235
X0154
X0173
X0192
Y0216
X0173
X0154
X0135
Y0197
X0154
X0173
X0192
Y0178
X0173
X0154
X0135
X0212
Y0197
Y0216
Y0235
Y0254
Y0273
Y0292
Y0311
X0231
X0249
X0268
X0287
Y0292
X0268
X0249
X0231
Y0273
X0249
X0268
X0287
Y0254
X0268
X0249
X0231
Y0235
X0249
X0268
X0287
Y0216
X0268
X0249
X0231
Y0197
X0249
X0268
X0287
Y0178
X0268
X0249
X0231
X0307
Y0197
Y0216
Y0235
Y0254
Y0273
Y0292
Y0311
X0335Y0326
X0404861Y0326139
X0416Y031
X0417Y0297
X0426811Y0299
X0424Y0242
X0408Y0245
X0385Y0238
X0372Y0245
X0367Y0235
X0351Y024
X033Y0238
Y0243
Y0248
Y0253
Y0258
Y0233
Y0218
Y0213
Y0208
Y0203
Y0198
Y0193
Y0188
X0361Y0199
X0396Y0204
X0444Y0232
X0444909Y0243091
X0449Y0235
X0469Y0241
X0307Y033
X0287
X0268
X0249
X0231
X0212
X0192
X0173
X0154
X0135
X0116
X0097
X0078
X0059
X004
T02
X0471Y001
Y002
Y003
Y004
Y005
T03
X0381Y0283
X0397
Y0338512
X0381
T04
X0471Y0079
Y0089
Y0099
Y0109
Y0119
Y0129
Y0156
Y0166
Y0176
Y0186
Y0196
Y0206
M30
