G04*
G04 #@! TF.GenerationSoftware,Altium Limited,Altium Designer,21.2.2 (38)*
G04*
G04 Layer_Color=16711935*
%FSLAX42Y42*%
%MOMM*%
G71*
G04*
G04 #@! TF.SameCoordinates,3077339D-DC90-483C-9222-5C5CAF03B3EF*
G04*
G04*
G04 #@! TF.FilePolarity,Positive*
G04*
G01*
G75*
%ADD10C,0.10*%
%ADD11C,0.20*%
D10*
X645Y1098D02*
X772Y1225D01*
X645Y735D02*
Y1225D01*
Y735D02*
X1035D01*
Y1225D01*
X645D02*
X1035D01*
X215Y386D02*
X345D01*
Y94D02*
Y386D01*
X215Y94D02*
X345D01*
X215D02*
Y386D01*
Y290D02*
X311Y386D01*
X1445Y1098D02*
X1572Y1225D01*
X1445Y735D02*
Y1225D01*
Y735D02*
X1835D01*
Y1225D01*
X1445D02*
X1835D01*
X505Y1587D02*
X1775D01*
X505Y1333D02*
X1775D01*
X505D02*
Y1587D01*
X1775Y1333D02*
Y1587D01*
X1855Y386D02*
X1985D01*
Y94D02*
Y386D01*
X1855Y94D02*
X1985D01*
X1855D02*
Y386D01*
Y290D02*
X1951Y386D01*
X1460Y642D02*
X1660D01*
Y517D02*
Y642D01*
X1460Y517D02*
X1660D01*
X1460D02*
Y642D01*
X600D02*
X800D01*
Y517D02*
Y642D01*
X600Y517D02*
X800D01*
X600D02*
Y642D01*
X1398Y382D02*
X1603D01*
Y257D02*
Y382D01*
X1398Y257D02*
X1603D01*
X1398D02*
Y382D01*
X997D02*
X1202D01*
Y257D02*
Y382D01*
X997Y257D02*
X1202D01*
X997D02*
Y382D01*
X597D02*
X802D01*
Y257D02*
Y382D01*
X597Y257D02*
X802D01*
X597D02*
Y382D01*
D11*
X230Y885D02*
X330D01*
X230Y725D02*
Y885D01*
Y725D02*
X330D01*
Y885D01*
M02*
