G04*
G04 #@! TF.GenerationSoftware,Altium Limited,Altium Designer,21.2.2 (38)*
G04*
G04 Layer_Color=8388736*
%FSLAX42Y42*%
%MOMM*%
G71*
G04*
G04 #@! TF.SameCoordinates,3077339D-DC90-483C-9222-5C5CAF03B3EF*
G04*
G04*
G04 #@! TF.FilePolarity,Negative*
G04*
G01*
G75*
%ADD19R,1.00X1.00*%
%ADD20R,1.73X0.85*%
%ADD21R,1.45X0.80*%
%ADD22R,1.30X1.77*%
%ADD23R,1.15X1.65*%
%ADD24C,1.80*%
%ADD25R,1.80X1.80*%
%ADD26C,1.47*%
D19*
X280Y730D02*
D03*
Y880D02*
D03*
D20*
X1111Y1171D02*
D03*
Y1044D02*
D03*
Y917D02*
D03*
Y790D02*
D03*
X569D02*
D03*
Y917D02*
D03*
Y1044D02*
D03*
Y1171D02*
D03*
X1911D02*
D03*
Y1044D02*
D03*
Y917D02*
D03*
Y790D02*
D03*
X1369D02*
D03*
Y917D02*
D03*
Y1044D02*
D03*
Y1171D02*
D03*
D21*
X175Y335D02*
D03*
Y145D02*
D03*
X385Y240D02*
D03*
X1815Y335D02*
D03*
Y145D02*
D03*
X2025Y240D02*
D03*
D22*
X1479Y580D02*
D03*
X1641D02*
D03*
X619D02*
D03*
X781D02*
D03*
D23*
X1400Y320D02*
D03*
X1600D02*
D03*
X1000D02*
D03*
X1200D02*
D03*
X600D02*
D03*
X800D02*
D03*
D24*
X1140Y1460D02*
D03*
X886D02*
D03*
X1394D02*
D03*
X1648D02*
D03*
D25*
X632D02*
D03*
D26*
X851Y1027D02*
D03*
X1522Y1009D02*
D03*
X968Y567D02*
D03*
X1946Y600D02*
D03*
X1839Y1398D02*
D03*
M02*
